<svg id="Scouts_SVG" data-name="Scouts SVG" xmlns="http://www.w3.org/2000/svg" width="252.153" height="229.77" viewBox="0 0 252.153 229.77">
  <g id="g12">
    <path id="path14" d="M66.425-478.442a79.834,79.834,0,0,1,11.688,31.5H90.962a91.678,91.678,0,0,0-13.847-38.47c-10.279-15.767-23.669-24.105-38.71-24.113h-.091A37.7,37.7,0,0,0,8.853-495.38a39.674,39.674,0,0,0-7.92,33.548l12.465-2.73a27.339,27.339,0,0,1,5.383-22.805,24.7,24.7,0,0,1,19.537-9.4h.064c13.309.008,22.6,9.969,28.043,18.324Z" transform="translate(-0.001 581.79)" fill="none"/>
    <path id="path16" d="M66.423-478.442a79.831,79.831,0,0,1,11.688,31.5H90.96a91.678,91.678,0,0,0-13.846-38.471c-10.28-15.766-23.67-24.106-38.711-24.113h-.091A37.706,37.706,0,0,0,8.852-495.38a39.671,39.671,0,0,0-7.92,33.547L13.4-464.562a27.338,27.338,0,0,1,5.383-22.805,24.7,24.7,0,0,1,19.537-9.4h.065c13.309.008,22.6,9.969,28.042,18.324" transform="translate(0 581.79)" fill="#7413dc"/>
    <path id="path18" d="M362.133-171.507a61.283,61.283,0,0,1-10.243-23.151H338.924a72.254,72.254,0,0,0,10.6,27.308c-4.361,7.3-12.188,14.508-20.466,18.819l-.013-.007-.014.007c-8.277-4.311-16.1-11.516-20.465-18.819a72.254,72.254,0,0,0,10.6-27.308H306.193a61.282,61.282,0,0,1-10.242,23.151l-2.17,3.015,1.549,3.381c5.417,11.82,17.927,23.672,31.129,29.491l2.565,1.135.018-.008.019.008,2.565-1.135c13.2-5.819,25.712-17.671,31.129-29.491l1.549-3.381Z" transform="translate(-202.965 364.255)" fill="none"/>
    <path id="path20" d="M362.134-171.507a61.275,61.275,0,0,1-10.243-23.151H338.925a72.249,72.249,0,0,0,10.6,27.308c-4.36,7.3-12.188,14.508-20.466,18.818l-.014-.007-.013.007c-8.278-4.31-16.105-11.515-20.465-18.818a72.257,72.257,0,0,0,10.6-27.308H306.195a61.276,61.276,0,0,1-10.243,23.151l-2.17,3.015,1.548,3.382c5.417,11.818,17.927,23.672,31.129,29.491l2.565,1.134.019-.008.018.008,2.567-1.134c13.2-5.819,25.712-17.673,31.128-29.491l1.549-3.382-2.17-3.015" transform="translate(-202.966 364.255)" fill="#7413dc"/>
    <path id="path22" d="M545.983-478.442a79.836,79.836,0,0,0-11.689,31.5H521.445a91.69,91.69,0,0,1,13.847-38.47c10.28-15.767,23.669-24.105,38.71-24.113h.091a37.706,37.706,0,0,1,29.461,14.148,39.674,39.674,0,0,1,7.919,33.548l-12.464-2.73a27.341,27.341,0,0,0-5.384-22.805,24.7,24.7,0,0,0-19.537-9.4h-.065c-13.308.008-22.6,9.969-28.042,18.324Z" transform="translate(-360.253 581.79)" fill="none"/>
    <path id="path24" d="M545.984-478.442a79.826,79.826,0,0,0-11.689,31.5H521.447a91.679,91.679,0,0,1,13.847-38.471c10.28-15.766,23.669-24.106,38.71-24.113h.091a37.706,37.706,0,0,1,29.46,14.148,39.68,39.68,0,0,1,7.92,33.547l-12.465-2.729a27.338,27.338,0,0,0-5.384-22.805,24.694,24.694,0,0,0-19.536-9.4h-.065c-13.309.008-22.6,9.969-28.042,18.324" transform="translate(-360.254 581.79)" fill="#7413dc"/>
    <path id="path26" d="M285.654-608.445H298.5c-1.6-14.8-7.41-27.7-12.557-39.128-5.139-11.4-9.99-22.17-9.921-32.9.107-12.343,7.145-24.925,18.831-33.674,2.048-1.542,7.868-6.009,13.1-10.813,5.232,4.8,11.052,9.271,13.1,10.813,11.687,8.748,18.724,21.331,18.832,33.674.069,10.733-4.782,21.5-9.921,32.9-5.148,11.426-10.955,24.325-12.557,39.128h12.848c1.588-12.224,6.546-23.224,11.349-33.887,5.722-12.7,11.128-24.706,11.046-38.242-.148-16.315-9.1-32.675-23.937-43.784-1.751-1.324-10.857-8.263-16.092-13.9l-4.666-5.032-4.666,5.032c-5.235,5.638-14.341,12.576-16.092,13.9-14.843,11.109-23.789,27.469-23.938,43.784-.082,13.536,5.324,25.537,11.046,38.242,4.8,10.663,9.76,21.662,11.348,33.887Z" transform="translate(-181.879 743.29)" fill="none"/>
    <path id="path28" d="M285.656-608.443H298.5c-1.6-14.8-7.41-27.7-12.556-39.129-5.14-11.4-9.991-22.17-9.921-32.9.107-12.342,7.145-24.924,18.831-33.673,2.047-1.542,7.868-6.008,13.1-10.812,5.233,4.8,11.052,9.27,13.1,10.812,11.685,8.749,18.724,21.331,18.83,33.673.07,10.734-4.781,21.505-9.921,32.9-5.147,11.425-10.954,24.325-12.556,39.129h12.848c1.589-12.225,6.546-23.225,11.349-33.888,5.721-12.7,11.128-24.706,11.045-38.242-.148-16.316-9.1-32.674-23.938-43.785-1.75-1.324-10.857-8.263-16.091-13.9l-4.667-5.032-4.666,5.032c-5.234,5.636-14.341,12.576-16.091,13.9-14.843,11.11-23.79,27.469-23.938,43.785-.083,13.536,5.323,25.538,11.045,38.242,4.8,10.663,9.761,21.663,11.349,33.888" transform="translate(-181.88 743.289)" fill="#7413dc"/>
    <path id="path30" d="M172.042-270.655v12.232H317.83v-12.232H172.042" transform="translate(-118.859 416.759)" fill="none"/>
    <path id="path32" d="M172.044-270.657v12.233H317.831v-12.233H172.044" transform="translate(-118.86 416.76)" fill="#7413dc"/>
  </g>
</svg>
