<svg id="Vector" xmlns="http://www.w3.org/2000/svg" viewBox="0 0 3260 2415"><style>.st0{fill:none;stroke:#ecf7f6;stroke-width:5;stroke-miterlimit:10}.st1{fill:#ecf7f6}.st2{fill:none;stroke:#ecf7f6;stroke-width:4;stroke-miterlimit:10}</style><path class="st0" d="M3184.6-14.9c-12.6 73-87.7 129.2-161.3 120.9-28.2-3.2-55-14.5-83.1-18.6-7.3-1.1-15-1.6-22.1.7-18.7 6-26.3 30.8-18.9 49s25.6 30 44.2 36.3c18.6 6.3 38.5 8.2 57.5 13.3 61.3 16.4 110 64.9 140.9 120.4s46.4 117.9 61.5 179.6c14.2 57.9 28.5 115.8 42.7 173.7 10.5 42.9 21.2 86.1 40.3 125.9s47.6 76.4 86.3 97.6"/><path class="st0" d="M3277.8 44.1c-37.5 27.3-82.7 41.7-123.5 63.8-14.3 7.8-28.4 16.7-38.8 29.3-10.4 12.6-16.7 29.3-13.6 45.3M3187.1 290.7c10.6 14.8 28.2 22.7 45.4 28.7 55.5 19.4 115.4 25.9 173.7 19M3275.4 128.5c-17.2 8.2-33 19.2-46.8 32.3-7.5 7.2-14.5 15.3-18.3 25-7.7 19.7-.3 42.6 12.9 59.1 4.2 5.3 9.2 10.2 15.5 12.8 5.9 2.4 12.4 2.4 18.7 2 25.7-1.4 51.1-9 73.5-21.9M2828.9-11.4c49.7 33.8 110.9 50.2 170.8 45.8 59.9-4.4 118.1-29.6 162.3-70.2M3090.7 319.1c4.7 10.5 8.5 21.4 11.5 32.2 15.3 56.2 14.9 116.1 34.6 170.9 18.7 52.4 54.7 97.2 73 149.7 24.7 71 16.3 153.5 57.1 216.6 22.1 34.2 56.5 58.6 91.8 79.1M2742.3-35.5c42.9 58.4 37.8 137.9 57 207.8 6.1 22.3 15.8 45.1 34.7 58.4 21.8 15.3 50.9 14.5 77.1 9.9 26.2-4.6 52.5-12.5 78.9-9.4 1.4.2 2.7.3 4.1.6"/><path class="st0" d="M2659.6-44.2c30.3 42.5 52.4 90.9 64.7 141.7 12.6 52 15.7 108.2 45.1 152.8 24.3 37 66 62 110 66.2 33.7 3.2 70-4.8 100.1 10.7 36.3 18.6 49.4 63.8 53.7 104.4 4.3 40.6 4.6 84.3 28 117.7 22.1 31.6 61.3 48.1 82.7 80.2 25.9 39 19.4 90.2 26 136.6 9.8 68.5 50.4 129.8 101.5 176.5 51.1 46.8 112.4 80.7 173.7 112.8"/><path class="st0" d="M2952.7 557.8c11.7 4.7 23.4 9.4 34.7 14.9 43.7 21.4 81 55.6 106 97.3 21.7 36.2 34 77 50.1 116 42.5 103.2 112.8 194.7 201.5 262.4M2484.3-35.2c76.7 78.1 145.4 164.1 204.6 256.3 19.3 30 38.9 62 69.8 79.7 14.5 8.3 31.3 13.3 43.4 24.9 24.5 23.5 20.2 62.8 25.1 96.5 3 20.7 10.3 40.7 21.2 58.6"/><path class="st0" d="M2391.6-21.6c11.8 61.7 64.7 106.8 118.3 139.7s112.8 60.4 152.6 109c41.7 50.8 56.5 117.7 73.8 181.2s40.9 129.8 93.2 169.7c50.5 38.6 120.5 46.5 167.7 89.1 26.8 24.1 43.8 57.4 69.8 82.2 16.6 15.9 36.7 28.1 51.1 46 22.2 27.5 28 64.3 40.3 97.5 36.4 98.2 128.6 162.8 215.7 221"/><path class="st0" d="M2860.5 666.2c72.1 44.8 161.6 72.7 205.1 145.6 26.7 44.7 31.1 99.4 54.5 145.9 52.2 104.1 187.6 148.1 234.5 254.8M2077.2-24.5c10.2 38.4 47.8 63.4 85.7 75.6s78.3 15.3 115.5 29.2c70.8 26.4 122.7 88.5 191.4 119.9 36.4 16.6 77.1 24.5 109.6 47.8 62.2 44.7 75 129.6 102.2 201.2 17 44.6 41.4 86.3 71.8 123.1"/><path class="st0" d="M2033.3-32.4c16.9 68.7 41.7 147 107.4 173.4 25.9 10.4 54.7 10.7 81.8 17.3 51.3 12.4 94.3 46.4 135.5 79.4 56.1 45 112.2 90 168.4 134.9 58.1 46.6 118.3 95.7 148.9 163.6 26.6 58.9 31.6 132.1 81.7 173 47.2 38.6 115.9 32.5 173.3 53 15.7 5.6 31.1 13.7 41 27.1 22.3 30.5 7.4 73 10.5 110.6 3.8 45.1 34.5 83.4 68.7 113 34.2 29.6 73.3 53.8 103.6 87.4 41.8 46.5 63.9 110.1 60.1 172.5-2.1 33.2-10.8 68.4 3.1 98.6 12.2 26.5 40.1 43.1 68.6 49.1 28.5 6.1 58.1 3.2 87.1.3"/><path class="st0" d="M3035.4 1089.7c32.9 36.2 72.5 67.7 94.5 111.2 21.4 42.2 22 93.1 8.3 137.7-15.5 50.5-53.8 79.6-80.6 123-8.2 13.3-16 29-11.7 44.1 5.5 19.1 28.4 28.1 48.2 26.7 19.8-1.4 38.4-10.1 57.9-14.1 29.2-6 60.5-.9 86.4 13.9 31.1 17.8 55.7 49.7 91.2 54.7M2083.6 241.5c32.1 74.8 66.7 148.6 103.7 221.1 7.2 14.1 14.8 28.6 27.4 38.2 24.1 18.6 58 13.8 88.3 10.7 93.8-9.7 197.2 8.8 261.7 77.7 57.7 61.7 78.1 156.5 148.8 202.7 64.8 42.4 157.8 33.3 212.1 88.6 22.6 23.1 34.2 53.1 44.6 84.1M1983.9-17.8c13.1 38.4 26.9 76.5 41.3 114.5"/><path class="st0" d="M1771.4-26.5c9.1 103.1 92.7 180.8 162.1 257.5 105.9 117.1 189.1 252.9 290.9 373.5 45.1 53.4 97.1 105.8 164.2 125.2 55.1 15.9 119.5 9.6 163.6 46.3 21.6 17.9 35 44 55.7 62.9 80.3 73.1 230.5 12.4 304.7 91.7 32 34.2 38.6 84.5 59.9 126.2 29.6 57.9 88.4 101.2 101.6 164.9 7.5 36.1-1.2 73.5-12.2 108.8-13.3 42.7-29.9 84.4-49.8 124.5-13.7 27.8-28.7 62.4-10.4 87.5 18 24.7 54.8 21.5 85.5 20.5 73.2-2.3 146.9 24.3 201.6 72.9"/><path class="st0" d="M2898.5 1044.5c18.5 19.1 34.9 40.2 48.5 63 48.7 81.4 62 183.2 36.1 274.4-15.6 54.8-44.2 115.2-16.7 165.1 26.4 47.9 87.1 69.7 141.7 72.6 83.5 4.4 209.2 50.4 264.6 140.9M1921 337c17.7 8.2 34.8 17.3 50 29.5 33.6 26.9 54.7 76.9 81.1 111 83.1 107.3 174.1 213.1 293.1 278.4 37.4 20.5 77.6 37.2 109.4 65.6 25.1 22.5 44 51.6 70.9 71.8 54.9 41.3 129.9 37.7 197 52.4 18.7 4.1 37 9.8 54.8 17M1587.6-40.2c55.6 44.6-12.3 143.9 26.7 203.5 8.8 13.4 22.2 23.1 35.4 32.2 44.3 30.6 90.9 54.9 138.3 78.4M1331.2-24c9.4 35.5 22.4 71.3 46.9 98.7s62.6 45.2 98.4 36.8c28.7-6.7 52-29.2 65.3-55.5 13.3-26.3 17.9-56.2 19.6-85.6.5-8.9.2-19.1-6.6-24.8"/><path class="st0" d="M1236.8-49.5c-17.2 55.6-22.7 114.8-16.3 172.6 4.6 41.2 19 86.5 56 105.1 52.2 26.2 112.6-15.2 171-16.4 65.5-1.4 120.1 47.3 181.2 71 71.5 27.7 153.9 21.3 222.2 56.2 70.6 36.1 112.9 109 159.9 172.9 113.6 154.7 273.8 263.8 430.5 370.5 81.4 55.5 162.9 111.1 239.6 173.1 39.1 31.7 76.9 64.9 112.7 100.3 35.4 35 76.6 69.8 105.9 110.1 4.4 6.1 8.6 12.4 12.3 18.9 16.3 28.2 25.6 61.3 21.3 93.5-4 29.6-18.8 56.4-29.6 84.3s-17.4 59.9-4.8 87c15.3 33 53.1 47.8 87.5 59.7 42.8 14.8 85.7 29.6 128.5 44.3 25.2 8.7 50.5 17.5 73.5 31 23.7 13.9 44.2 32.6 63.9 51.8 34.1 33.4 66.1 69 95.6 106.6"/><path class="st0" d="M2968.1 1638.7c34.4 11.5 67.2 28 101.9 40.9 15.7 5.8 44.7 17.1 50 33 5.7 16.9-35.3 7.5-51.5 15-42 19.5-48.4 37.4-79.5 55.5-42.8 24.9-74.8 69.3-99 112.5-33.1 59-65.4 136.4-66 204-.6 67.6 41.3 134.2 44.2 201.8.5 12.2.8 24.7-3.6 36s-14.5 21.4-26.6 21.9M1541.4 310.1c30.6 4.2 61 8.8 91.3 14.7 103.2 20 206.3 55.2 286.2 123.4 137 117 190.2 316.7 341.5 414.4 53.7 34.7 115.9 53.6 173.4 81.7 77.7 38.1 136.2 104.2 187.2 172.4 25.9 34.6 50.3 70.4 75.7 105.3 29.5 40.5 67.9 71.4 104.9 104.9 18.8 17 37.8 34.3 51.8 55.5 14 21.2 22.5 47.1 18.1 72.1-4.2 23.4-18.9 43.3-30.2 64.2-11.3 20.9-19.3 46.6-9.2 68.1 3.5 7.4 8.5 13.2 14.5 18M1027.3-17.9c-7.3 80.9 27.1 164.4 89.2 216.7 56.7 47.7 131.3 68.2 204.2 81.2 25.4 4.6 51 8.4 76.6 11.8"/><path class="st0" d="M3267.9 1778.5c-8.4 17.1-20 32.6-34.1 45.4-5.1 4.7-10.8 9.1-17.5 10.7-12 3-24.3-3.5-33.5-11.8-19.4-17.5-30.8-43.8-53.4-57.1-29.2-17.2-67.7-6.3-94.6 14.2-36.5 27.7-58.6 69.9-79.6 110.6-10.2 19.8-20.4 39.5-30.6 59.3-15.7 30.4-31.6 61.4-37.7 95.1-4.3 23.7-3.6 48-2.2 72.1 1.7 29.5 4.9 60.3 21.4 84.8 10.5 15.6 25.6 27.5 39.9 39.8s28.3 25.9 35.5 43.3c7.2 17.4 5.8 39.7-7.9 52.6"/><path class="st0" d="M2979.1 1982.2c-5.5 15.7-10.7 31.8-10.8 48.4-.2 28 14 54.1 30.2 77s35 44.4 46.3 70.1c22.6 51.7 11.1 111.3-.8 166.5M3267.8 1815.9c-15.6 43.6-38.6 84.5-67.7 120.5-5.7 7-12.5 14.3-21.5 15.2-15 1.4-24.7-15-30.5-28.9-8.5-20.5-17-40.9-25.5-61.4-5.7-13.6-12.8-28.7-26.7-33.5-11.2-3.9-23.6.2-33.7 6.4-11.9 7.3-21.4 17.3-29.6 28.6M3287.2 1941.3c-32.7 16.3-48.9 53-62.5 86.9-3.7 9.3-7.5 19.4-4.9 29.1 1.9 6.9 6.9 12.5 11.9 17.6 29.9 30.6 66.6 54.6 106.6 69.7M3277.3 2264c-20 12.4-40.3 25.2-55.4 43.3-15.1 18.1-24.3 42.7-18.2 65.5M3277.2 2142c-21.1 5.8-43.9 5-64.8-1.7-13.3-4.3-25.9-10.9-36.1-20.5-19.2-18-28.1-44.1-36.1-69.2s-16.5-51.3-35.2-69.8c-18.7-18.5-51.2-26.1-71.4-9.2-13.6 11.4-18.2 30.9-16 48.5 2.2 17.6 10.3 33.9 18.3 49.8 22.7 45 46.3 90 60.1 138.5 13.8 48.5 17.2 101.5-.6 148.6M844.6-84.8C872 82.5 988.5 232.5 1143.9 300.4c144.6 63.2 308.4 56.1 465.1 74.8s326.4 77.3 398.7 217.5c39.9 77.5 45.9 173.1 104.2 238 71.8 80 198.5 86 278.1 158.2 44 39.9 68.9 95.9 99.3 146.9 54.7 91.7 130.2 170.9 219.1 229.8 27 17.9 55.9 34.5 76.5 59.5 20.6 25.1 31.3 61.6 16.3 90.4-14.6 28.1-47.7 40.2-77.6 50.8-131.6 46.6-256.8 111.1-371.1 191.1-11.9 8.3-25.1 21.2-20.2 34.8 8.2 22.6 42.1 5.5 66 7.8 28.2 2.7 41.6 35 51.8 61.4 10.2 26.4 32.7 56.6 59.8 48.4 25.5-7.7 29.8-42.1 48.3-61.3 23.4-24.2 63.3-19.1 93.9-33.3 29.5-13.7 47.1-43.6 68.6-68 71.5-80.9 203.3-99.8 294.7-42.3-45 56.7-114.9 86.1-177.1 123.3-62.1 37.2-123.2 92.9-127.1 165.2-4.2 79 61.7 149.9 54.4 228.6-3.7 40.1-27.9 77.8-62.8 98-59.1 34.1-132.7 15.8-200.1 5.3s-150.1-5-184.3 54"/><path class="st0" d="M2302.4 2069.7c91.3-14.9 182.5-29.7 273.8-44.6 5.6-.9 11.6-1.8 16.8.4 6 2.5 9.8 8.3 13.2 13.8 30.8 50 61.5 100.1 92.3 150.1 12.8 20.8 24.8 50.2 7.1 67.2-10.3 9.8-26.2 10.1-40.3 8.9-67.4-5.6-131.7-29.7-198.3-41.2-66.6-11.5-141-8.2-193.6 34.2-53.4 43-87.4 125.4-156 124-68.4-1.4-105.1-88.9-171.5-105.5-76.7-19.2-138.1 61.6-175.9 131M1493.7 445.5c59.1 5.6 118.6 18.7 176.1 31.9 100 23 209.3 51.9 268 136.1 13.4 19.2 23.5 44.8 12.4 65.3-7 13-20.9 20.7-34.7 26-68.9 26.8-145.9 12-219.7 6.2-41.4-3.2-95.8 6.4-102.4 47.4-4.8 29.6 20.3 54.8 43.1 74.3 46.2 39.4 116.4 79.3 161.3 38.4 24.6-22.3 40-67 72.5-60.2 18 3.8 27.7 22.8 36.9 38.7 93.9 163.8 339 163.2 471.4 297.7 77.3 78.5 105.2 191.8 128.3 299.5 5.7 26.4 11.3 53.2 10 80.2-4.3 88.5-79.9 156.5-157 200.1-77.1 43.6-163.9 75.8-222.9 141.8-37 41.3-60.4 103.8-33.3 152.1 12.3 21.9 31.1 35.8 53.4 44.3M754.5-59.1c-30.2 68.9-54.7 140.3-73.3 213.2-5.7 22.3-10.8 45.5-6.5 68.1 8.9 46.1 54.6 76 99.5 89.6 44.9 13.6 93.2 16.6 135.9 36.1 96.9 44.3 160.6 169.6 266.9 161.7 39.6-3 74.7-25.3 111.5-40.4 20.5-8.4 41.5-14.5 62.9-18.8"/><path class="st0" d="M1669.3 2401.3c80.4-78.2 139.9-177.6 170.9-285.4 3.7-12.9 7.5-26.8 17.7-35.5 26.2-22.4 63.7 5.6 90.2 27.6 29.3 24.3 63.5 42.8 99.9 53.8 20.2 6.1 46 8.3 58.5-8.7 12.2-16.4 3.6-39.7-6.9-57.3-35.6-59.9-89.8-108.6-153.2-137.6-27.4-12.5-57-21.8-79.8-41.5s-36.5-54.4-21.3-80.4c25-43 91.9-22.4 137.9-41.2 33.6-13.8 53.3-47.8 77-75.4 23.7-27.6 62.2-51.2 94.8-35.1 12.1 6 21.3 16.8 33.5 22.7 25.7 12.6 56.2.5 82.2-11.6 44-20.4 89.2-41.7 121.7-77.6s49.4-90.6 27.7-133.9c-14.6-29.1-43.5-48.2-63.1-74.3-35.8-47.8-36.8-114-68.9-164.3-52-81.5-163.2-94.8-248.2-141-70.5-38.3-126-103.6-152.3-179.4-7.8-22.4-19.2-50.6-43-50.6-9.2 0-17.8 4.8-25 10.7-32 26.1-41.2 70.7-63.6 105.4s-77.9 57.4-102.5 24.2c-9.5-12.8-10.6-29.6-14.5-45.1-16-63.4-78.1-102.8-114.3-157.3-41.9-63.3-46.6-143.5-47.1-219.4-.1-14.5-.6-30.4-9.9-41.5-17.3-20.6-51.1-11.2-73.1 4.3-87.2 61.8-108.4 198.9-43.8 284.1 14 18.5 32 36.1 35.4 59.1 8.2 54.7-68.6 110.3-34.9 154.1 22.3 29 69.4 14.1 97.2-9.6 27.8-23.7 54.8-55.8 91.3-55.6 26.8.1 50 18.4 68 38.2 68.5 75.1 93.2 187.6 62.5 284.6-37.2 117.6-173.2 167-261.4 253.1-84 82-197.6 136.9-295.5 82.2-76.3-42.6-102.7-154.6-53.6-226.8 14.6-21.4 34.4-39.2 46.9-61.9 12.5-22.7 15.8-53.8-2-72.6-8.7-9.2-21.2-13.9-33.5-17-96.7-23.8-189.6 41.1-280 83-48 22.3-112.6 35.3-147.6-4.4-18.7-21.2-22.5-51.3-32.7-77.7-10.2-26.4-34.4-52.9-62-47-22.8 4.8-37.3 29.9-60.2 34.3-25.4 4.8-47.8-18-58.6-41.4-10.9-23.4-16.3-50.2-33.8-69.1-23.6-25.4-32.7-11.1-62.2-29.3C284 1085.3 285 991.4 255 942c-30.6-50.4 26.2-132.3 2-186-18.3-40.8-56.4-82.5-86-116-75.7-85.4-131.2-194.4-88-300 45-110 104-93.2 181.7-183.3 11-12.7 20.9-82.5 24-99 10.7-56.2-75.8-132.7-66-189"/><path class="st0" d="M80.5 751.6c32.5 48.9 27.1 112.5 23.9 171.1-3.3 58.6-.2 124.6 42.5 164.8 54.3 51.2 148.5 37 202.9 88 22.3 20.9 34.6 49.9 51.3 75.5 16.7 25.6 41.5 49.8 72 50.5 19.1.5 37.8-8.4 56.8-6 37.1 4.7 54.7 46.6 79 75.1 34.6 40.5 94.7 57 145 39.8 23.1-7.9 46.9-22.2 70.1-14.7 24.7 8 35.1 36.2 44.6 60.3 65.3 167.1 240.6 284.6 420 281.7 50.8-.8 101.1-10.4 151.8-12.7 71.6-3.2 144.9 8.5 208 42.4 63.1 33.9 115.1 91.3 134.3 160.3 28 100.9-15.5 206.6-59.5 301.6-26.6 57.5-54.4 115.7-97.2 162.4-5.9 6.4-22.3 3.5-15.8-2.3"/><path class="st0" d="M92.6 1129c58 76.9 173.8 76.7 254 130 31.2 20.8 57.7 50.1 93.3 61.9 27.4 9.1 58.4 7 83.9 20.6 47.6 25.5 61.4 97.7 113.7 111.2 38.5 10 78-18.5 117.5-13.3 31.2 4.1 56.1 28.6 72.6 55.3 16.5 26.8 27.2 56.9 44.6 83.1 31.8 48.1 82.9 79.2 132.4 108.7 64.4 38.4 130.1 77.5 203.3 93.8 77.7 17.3 158.7 7.9 237.3-4.9 51.2-8.3 106-17.6 153.1 4.1 68.3 31.5 113.9 127.2 116.9 202.3 6.3 160.2-46.2 310.5-162 421.5"/><path class="st0" d="M585.7 1468.9c9.6 4 19.4 7.6 29.5 10.5 43.4 12.4 91.6 12.9 128.9 38.3 26.4 18 43.6 46.1 63.3 71.1 38.3 48.8 88.5 88.3 144.9 114.1 39.3 18 81.9 29.6 117.8 53.6 31.6 21.1 56.8 51 88.7 71.6 38.4 24.8 86 34.9 131.1 28 17.7-2.7 35.5-8 53.2-5.4 20.2 2.9 37.8 15.5 57.8 19.2 52 9.6 105.2-42.4 153.8-21.8 43.1 18.3 46.4 76.1 55.4 122 10.1 51.5 35.5 100.3 36.3 152.8 1 65.5-36.2 125.2-76.9 176.6-48.9 61.7-109.4 120.5-186.4 137.3-18.9 4.1-40.4 5-55.8-6.6-30.8-23.2-13.8-73.7 13.7-100.7s64.8-49.4 73.2-87c8.7-38.7-19.8-78.5-56.5-93.7-36.6-15.1-78.5-10.5-116.6.2-38.2 10.6-74.7 26.9-113.6 34.9-37.2 7.6-75.8 7.3-112.7 16.2-36.9 8.9-74.1 29.6-88.6 64.7-18.1 43.9 4.2 95.5-9.2 141-10.7 36.5-46 64.4-84 66.5s-76.1-21.8-90.7-56.9c-20-48 4-104.6 41.2-140.8 19-18.5 41.3-33.7 57.7-54.4 16.4-20.8 26.1-50 14.8-73.9-5.5-11.7-15.8-22.1-15.1-35 .9-17.3 22.1-27.2 39.2-24.1 17.1 3 31.3 14.4 46.5 22.8 69.3 38.7 155.3 17.2 231.5-5.3 57.4-16.9 114.7-33.8 172.1-50.7 21.3-6.3 43.2-12.9 60.5-26.8 17.3-13.9 29.1-37.2 22.9-58.5-6.7-23.3-31.8-36.6-55.8-40.1-24-3.5-48.5.1-72.6-2.7-84-9.8-139.1-91.3-213.9-131-48.6-25.8-105.4-33.5-153.6-60.1-70.2-38.7-114.3-112.7-181.2-156.8-34.3-22.6-73.5-36.5-111.9-50.9-186.7-70.3-366.3-159.2-535.4-264.9M96.5 1186.2c76 90.5 205.6 110.1 308.1 168.8 21.7 12.4 42.4 26.7 63 41.3"/><path class="st0" d="M553.4 1553.7c25.6 14.3 50.6 29.7 74.6 46.7 34.7 24.5 67.2 52.2 103.7 73.9 30 17.8 62.3 31.4 94.6 44.8l137.7 57.6c43.5 18.2 87.6 36.7 125.3 65.1 25.2 18.9 47 41.9 71.6 61.6 26.8 21.4 56.7 38.8 87.5 53.9 13 6.4 26.7 12.7 36.1 23.7s13.4 28.3 4.9 40.1c-5.5 7.6-14.7 11.3-23.5 14.6-59.2 22.2-119.8 40.7-181.4 55.4-33.8 8.1-68.8 15-103 8.9-39.6-7.1-74.4-31-113.7-39.6-39.3-8.6-90.4 7.1-96.9 46.8-4.5 27.6 13.7 59.5-3.1 81.8-7.7 10.2-20.6 14.7-33 17.7-42.2 10.4-93 14-115.7 51-19.4 31.7-7.8 72.3 1.3 108.4 8.6 34.1 14.4 68.9 17.4 104 .8 9.3 1.1 19.6-4.3 27.1-6.1 8.4-17.8 11-28.1 9.9-27.5-2.9-49.1-26.5-59.1-52.4-10-25.8-11-54.1-14.1-81.6-4-34.9-12.2-70.7-33.9-98.4-21.7-27.7-59.6-45.1-92.9-33.8-22.5 7.6-39.1 26.4-57.4 41.5-48.1 39.7-114.5 56.4-175.7 44.1M101.5 1329.5c98.7 69.8 213.1 112.8 324 161.8"/><path class="st0" d="M-46.8 1444.3c76-59.5 191.6-62 270.1-5.8 38.4 27.5 67.8 66.7 108.2 91.1 74.7 45 174 32.2 248.1 78.2 57.2 35.5 91.7 101.9 152.3 131.3 41.6 20.2 89.7 20.1 135.2 28.9 117.6 22.8 213.8 104.6 304.1 183.3 21.4 18.7 44.9 46.9 31.5 72-14.4 27-53.7 19.9-84.3 19.1-43.5-1.1-85.2 18.7-128.6 19.6-60.5 1.3-115.1-33.4-165.6-66.6-18.3-12.1-37.7-24.5-59.6-26.2-38.1-3-70.7 27.2-92 59-21.3 31.7-37.8 68.3-68.6 91.1-50.5 37.4-122.5 25.1-179.4-1.5s-108.7-66-169.7-80.9c-34-8.3-73-10.4-96.3-36.4-18.1-20.2-21.2-50-17.3-76.8 3.9-26.8 13.8-52.5 18.5-79.2 13.2-74.8-18.2-155.8-78.5-202-29.5-22.6-64.6-37-93.7-60.2-31.3-25-54.6-60-65.5-98.6M141 2127.8c37-2 74.1-1.1 110.9 2.7 39.8 4.1 82.2 13 109.5 42.3 9 9.7 16.2 21.8 17.4 35.1 1.8 19.3-9.4 38-24.5 50.2s-33.6 19.1-51.8 25.8c-45.3 16.6-95.6 32.9-140.4 15.3"/><path class="st0" d="M147 2191.9c20.7-6.3 41.8-11.4 63.1-15.3 11.2-2 22.7-3.7 33.9-1.6s22.1 8.5 26.9 18.8c5.7 12.3 1.3 27.4-7.6 37.6-8.9 10.2-21.6 16.2-34.2 21.1-21.8 8.4-44.7 14.1-67.9 16.8M834.2 974.9c-48.7 28.7-114 26.1-160.2-6.4-18.4-12.9-33.7-29.9-51.9-43-19.3-13.8-41.7-23.2-65.1-27.1-4.9-.8-9.9-1.4-14.6.1-10.6 3.3-15.6 16.3-13.4 27.2s9.7 19.8 17.5 27.6c39.5 39.5 95.6 66 116.9 117.6 13.6 32.9 12.8 75 41.1 96.5 25.7 19.5 62.7 11.5 91.9-2.2 29.2-13.7 57.9-32.6 90.1-32.5 34.9 0 65.5 22.3 98.8 33 38.4 12.4 79.7 9.2 120.1 9.5 40.3.3 83.2 5.3 114.7 30.4 22.7 18.1 37.3 45.8 39.4 74.7 2.1 28.7-7.6 57-8.8 85.8-1.2 28.8 10 62.1 37.4 71.2 31.8 10.5 63.6-18.2 77.9-48.5s20.6-65.5 43.5-89.9c31.7-33.8 83.8-35.9 126.5-53.8 31.3-13.1 58.7-35.7 77.5-64 19.7-29.6 28.4-72.6 4.4-98.8-17-18.5-44.7-22.5-69.8-20.4-52 4.3-99.8 28.9-149.1 46.1-55.3 19.3-113.7 29.3-172.2 29.7-14 .1-28.6-.5-40.9-7.3-38.8-21.6-30.5-89-69.9-109.5-23.1-12.1-50.8-1.5-76.2 4.5-25.4 6-59.1 2.9-67.9-21.6M280.8 387.3c-23.3 33.8-40.9 73.5-39.3 114.5 2.2 55.2 38 102.6 72.2 146 9.3 11.8 20.3 24.5 35.3 25.8 14.2 1.2 27.3-8.9 34.4-21.2 23.9-41.3-7.4-93.1-2.3-140.6 3.4-31.1 22.4-58.4 44-81s46.4-42.4 65.6-67c21.8-27.8 35.9-61.6 40.5-96.7 3.9-30.2 1-61.6 9.9-90.7 10-33 34.4-60.3 43.7-93.6 13.8-49.7-8.3-101.5-30-148.2"/><path class="st0" d="M329.9 20.9c17.3 14.3 27.5 35.3 35.4 56.3 13.1 35 21.3 71.8 24.3 109 1.6 20.4 1.5 41.4-5.1 60.7-3.3 9.7-8.2 18.7-13.8 27.2M437.9-13.3c16 32.9 34.9 68.5 68.8 82 11.4 4.5 25.3 5.8 35.2-1.5 8.9-6.6 12.2-18.6 12.1-29.8 0-23.6-11.6-45.4-22.9-66.1-5.7-10.5-11.5-21.1-17.2-31.6M209-20c8.6 10.5 9.9 25 10.9 38.6 1.2 17.4 2.4 35-.5 52.1-4 22.8-15.3 43.9-30.4 61.4M148.1-33.8c6.4 38.9-16.6 80.7-52.8 96.3-15.5 6.7-32.5 8.8-49.3 10.7-27.2 3.1-55.2 5.6-81.8-1.4M-33.1 196.4c22.7 3.6 45.5 6 68.4 7.2 6.9.3 13.9.6 20.4-1.5s12.6-7 14.2-13.7M1190.1 928c.4 16.8 6.6 33.7 18.5 45.6 11.8 11.9 29.5 18.3 46 15.2 16.6-3.1 30.5-15.4 38.7-30.1 8.2-14.7 18.6-31.3 19.8-48.1 1.5-21.6 6.7-43.3 2-64.5-2.3-10.4-5.8-25.7-12.5-34-7.8-9.7-21-19.3-33.5-19s-30 4.6-37.3 14.7M1829 908c-10.2.9-31 6-20 39s33.9 49 8.4 66-86.4 26-101.9 48-23.5 63 0 96 64.2 79 55.9 134c-8.4 55-24.4 132-35.4 159s-15 78 12 81 52-35 81-59 91-73 119-74 85 12 142 58 108 41 119 23 35-52 23-77-46-138-120-175-147-112-163-134-60-138-71-153-27-34-49-32zM1429 1129s-78 63-89 95-22 49-3 50 46-22 64-40 82-61 102-59.5 47 22.5 63 19.5 55-23 48-53-33-56-55-57-78 8-101 24-10.5 5.4-29 21zM1033 1063s-52 30.6-47 50.8c5 20.2 37 45.6 63 33.4 26-12.2 79-35.2 80-49.2s-9-39-24-41-54-6.1-72 6zM392 1596s-172.6-17-181.8 22 30.8 166 57.8 203 83 121 124 146 73 50 147 23 164-42 179-56 66-56 91-46 27 89 48 105 73 51 133 42 89-15 104-30 55-45 9-74-132-77-209-93-180-50-239-103-104.3-98-126.6-107"/><path class="st0" d="M368 1684s-51 27-25 94 69 124 112 145 110 10 132 0 91-32 94-51 10-70.5-71-105.8c-81-35.2-177-86.2-201-87.2s-26.2-7.1-41 5z"/><path class="st0" d="M470 1770.4s-60 51.6 34 88.6 108-26 99-38M970 1953s-73 12-79 24 12 24 45 27 112-15 112-25.5-37.8-33.7-78-25.5zM1483 1892s-11 44 10 73 32 36 44 30 29-18 20-37-36-82-74-66zM1570 2057s-46.4 1-50.2 59c-3.8 58 16 65 25.1 69 9.1 4 49.1-7.5 48.1-42.2s17-54.8-23-85.8zM635 326c-4-.8-37 19-58 66s-46 70-66 91-74 155-26 235 73 79 92 117 109 97 169 99 89-21 108-16 71 15 82 4 70-58 85-66 31-26 27-34-19.7-21-62.3-6-126.5-46.7-141.1-64.4C830 734 811 678 818 615s-8-111-28-122-90-55-109-94-22-68-46-73z"/><path class="st0" d="M582 492c1-3 67.2-29 91.1 30S696 647.4 681 673.7c-15 26.3 10 92.2 59 127.3 49 35 76 57 62 74s-79 45-146-21-111-125-119-186-6.3-39.7-1.3-58.7M1731 580s-98.7-18.7-110.7 22.7c-12 41.3 74 72 101.3 74.7 27.3 2.7 109.3 4.7 112-31.3 2.7-36.1-81.3-63.2-102.6-66.1zM2627 1497.3c-2-.7-74-28-8.7-52s108-28 126.7-15.3 46 38.7 24 58M2919 1688.7c-2.6.5-31.3 4-45.3 29.3s-2.7 40.7 16 45.3c18.7 4.7 42 .7 54.7-13.3 12.7-14 27.3-25.3 18.7-40s-17.4-26.7-44.1-21.3zM2582.3 1925.3c-4.7-1.3-44.7-31.3 18.7-54.7 63.3-23.3 80.7-15.3 90-5.3"/><path class="st1" d="M2603.7 1923.1l1.1 2.9-11.1 4.1-1.1-2.9 11.1-4.1zM2611.3 1906.8l-4.2 4.6-1.9-2.7 5.2-5.8 3.4-1.2 10.7 29.3-3.8 1.4-9.4-25.6zM2634.4 1898.3l-4.2 4.6-1.9-2.7 5.2-5.8 3.4-1.2 10.7 29.3-3.8 1.4-9.4-25.6zM2665.4 1886c-.8.3-1.8.7-2.9 1.3-5.8 3.3-7.5 9.1-6.4 14.1h.1c.7-2.4 2.6-4.8 5.8-6 5.2-1.9 10.2.5 12.3 6.2 2 5.4.1 11.7-6 13.9-6.3 2.3-12.2-1.1-14.9-8.7-2.1-5.8-1.7-11.1.1-15 1.6-3.3 4.3-6 7.8-7.8 1.1-.6 2.1-1 2.8-1.3l1.3 3.3zm5 17.3c-1.5-4.2-4.8-5.8-8.5-4.5-2.4.9-4.1 3.2-4.4 5.7-.1.5-.1 1.2.2 1.9 1.8 4.8 5.4 7.5 9.5 6 3.5-1.2 4.7-4.9 3.2-9.1zM2695.5 1888.1c3.6 10 1.9 16.8-4.5 19.2-5.7 2.1-11.6-1.9-15.2-11.5-3.6-9.8-1.3-16.8 4.6-19 6.1-2.2 11.6 2 15.1 11.3zm-15.8 6.3c2.8 7.6 6.7 11.1 10.3 9.8 4.1-1.5 4.3-6.9 1.5-14.4-2.6-7.2-6.2-11.3-10.3-9.8-3.4 1.2-4.4 6.4-1.5 14.4zM2188.9 2057.1l-5.7 2.7-.7-3.3 7-3.3 3.6.2-1.5 31.2-4.1-.2 1.4-27.3zM2213.5 2058.3l-5.7 2.7-.7-3.3 7-3.3 3.6.2-1.5 31.2-4.1-.2 1.4-27.3zM2246.8 2059c-.9-.1-2-.1-3.2 0-6.7.8-10.4 5.5-11.4 10.6h.1c1.6-1.9 4.2-3.4 7.7-3.2 5.5.3 9.2 4.4 8.9 10.5-.3 5.7-4.4 10.8-10.9 10.5-6.7-.3-10.8-5.7-10.4-13.8.3-6.1 2.7-10.9 5.9-13.8 2.7-2.4 6.2-3.8 10.2-4.1 1.3-.1 2.3-.1 3.1-.1v3.4zm-2.1 17.9c.2-4.5-2.2-7.3-6.1-7.5-2.5-.1-5 1.3-6.2 3.5-.3.5-.5 1.1-.6 1.8-.2 5.1 2 9 6.4 9.2 3.7.3 6.3-2.6 6.5-7zM2273.7 2072.5c-.5 10.6-4.7 16.3-11.6 15.9-6.1-.3-9.9-6.2-9.5-16.5.5-10.5 5.3-16 11.6-15.7 6.5.4 10 6.4 9.5 16.3zm-16.9-.3c-.4 8.1 1.9 12.8 5.7 13 4.3.2 6.6-4.7 7-12.7.4-7.7-1.4-12.8-5.7-13-3.7-.1-6.6 4.2-7 12.7zM2983.4 1954.8l2.7 1.6-6 10.2-2.7-1.6 6-10.2zM2978.8 1937.3l-.2 6.2-3.2-.9.3-7.7 1.8-3.1 27 15.7-2.1 3.5-23.6-13.7zM2991.2 1916.1l-.2 6.2-3.2-.9.3-7.7 1.8-3.1 27 15.7-2.1 3.5-23.6-13.7zM3022.5 1916.4l-2.2-1.3-1.1-4.5c-2.6-10.7-4.2-15.8-8.3-18.2-2.7-1.6-6-1.7-8.4 2.3-1.4 2.4-1.4 5.2-1 7.1l-3.2-.3c-.5-2.8-.1-6.1 1.7-9.2 3.4-5.8 8.8-5.9 12.6-3.7 5 2.9 6.9 8.8 9.1 17.7l.7 3.3h.1l7-12.1 3 1.8-10 17.1zM3031.5 1869.2c9.2 5.3 12.3 11.7 8.8 17.7-3.1 5.3-10.1 6-19 .9-9-5.3-11.8-12.1-8.6-17.5 3.3-5.8 10.2-6.1 18.8-1.1zm-8.1 14.9c7 4.1 12.3 4.2 14.2.9 2.2-3.7-1.1-8.1-8-12.1-6.6-3.9-12-4.7-14.2-.9-1.9 3.2.7 7.8 8 12.1zM2864 1611.8l-.9 3-11.3-3.5.9-3 11.3 3.5zM2880 1603.4l-6.1 1.2.2-3.3 7.6-1.5 3.4 1.1-9.3 29.8-3.9-1.2 8.1-26.1zM2903.5 1610.7l-6.1 1.2.2-3.3 7.6-1.5 3.4 1.1-9.3 29.8-3.9-1.2 8.1-26.1zM2922.7 1645.2l2.5-8.1-13.8-4.3.8-2.7 19.2-14.9 4.4 1.4-5.8 18.5 4.2 1.3-1 3.2-4.2-1.3-2.5 8.1-3.8-1.2zm3.5-11.3l3.1-9.9c.5-1.6 1-3.1 1.6-4.6h-.1c-1.5 1.5-2.6 2.5-3.8 3.6l-10.4 7.9v.1l9.6 2.9zM2958.2 1639.6c-3.1 10.1-8.6 14.6-15.2 12.5-5.8-1.8-8.1-8.5-5.1-18.4 3.1-10 9.1-14.2 15.2-12.3 6.2 2 8.1 8.7 5.1 18.2zm-16.3-4.6c-2.4 7.7-1.4 12.9 2.3 14 4.1 1.3 7.6-2.9 10-10.5 2.3-7.3 1.9-12.7-2.3-14-3.6-1.1-7.5 2.4-10 10.5zM2647.6 1498.8v3.1h-11.9v-3.1h11.9zM2660.4 1486.1l-5.5 2.9-.8-3.2 6.8-3.6h3.6v31.2h-4.1v-27.3zM2685 1486.1l-5.5 2.9-.8-3.2 6.8-3.6h3.6v31.2h-4.1v-27.3zM2718.3 1485.1c-.9 0-2 0-3.2.2-6.6 1.1-10.1 6-10.8 11.1h.1c1.5-2 4.1-3.6 7.5-3.6 5.5 0 9.4 4 9.4 10.1 0 5.7-3.9 11-10.4 11-6.7 0-11-5.2-11-13.3 0-6.1 2.2-11 5.3-14.1 2.6-2.5 6-4.1 10-4.6 1.2-.2 2.3-.2 3.1-.2v3.4zm-1.2 18c0-4.5-2.5-7.2-6.4-7.2-2.5 0-4.9 1.6-6 3.8-.3.5-.5 1.1-.5 1.9.1 5.1 2.4 8.9 6.9 8.9 3.5.1 6-2.9 6-7.4zM2745.8 1497.4c0 10.6-3.9 16.5-10.8 16.5-6.1 0-10.2-5.7-10.3-16 0-10.5 4.5-16.2 10.8-16.2 6.6-.1 10.3 5.8 10.3 15.7zm-16.9.5c0 8.1 2.5 12.7 6.3 12.7 4.3 0 6.4-5 6.4-13 0-7.7-2-12.7-6.3-12.7-3.7 0-6.4 4.5-6.4 13zM2807.1 979.5l-1.7 2.6-9.9-6.6 1.7-2.6 9.9 6.6zM2824.8 976l-6.2-.6 1.1-3.1 7.7.7 3 2-17.3 26-3.4-2.3 15.1-22.7zM2845.3 989.6l-6.2-.6 1.1-3.1 7.7.7 3 2-17.3 26-3.4-2.3 15.1-22.7zM2843.1 1020.9l1.4-2.2 4.5-.8c10.8-1.9 16.1-3.3 18.7-7.2 1.8-2.6 2.1-5.9-1.8-8.5-2.4-1.6-5.1-1.7-7-1.5l.5-3.2c2.8-.3 6.1.3 9.1 2.2 5.6 3.7 5.4 9.1 2.9 12.8-3.2 4.8-9.2 6.4-18.2 8l-3.4.5-.1.1 11.7 7.8-1.9 2.9-16.4-10.9zM2889.7 1032.7c-5.9 8.8-12.4 11.5-18.1 7.7-5.1-3.4-5.4-10.4.3-19.1 5.8-8.7 12.7-11 18-7.5 5.4 3.7 5.3 10.6-.2 18.9zm-14.4-9c-4.5 6.8-5 12-1.8 14.1 3.6 2.4 8.1-.7 12.5-7.3 4.2-6.4 5.4-11.7 1.8-14.1-3.1-2-7.8.3-12.5 7.3zM2977.2 987.9l-2.8 1.3-5.1-10.7 2.8-1.3 5.1 10.7zM2994.1 994l-5-3.7 2.6-2.1 6.2 4.6 1.5 3.3-28.2 13.4-1.8-3.7 24.7-11.8zM3004.7 1016.2l-5-3.7 2.6-2.1 6.2 4.6 1.5 3.3-28.2 13.4-1.7-3.7 24.6-11.8zM3010 1053.8c-9.6 4.5-16.6 3.5-19.5-2.7-2.6-5.5.8-11.7 10.1-16.2 9.5-4.5 16.6-2.9 19.3 2.8 2.7 5.9-1 11.8-9.9 16.1zm-7.7-15.1c-7.3 3.5-10.4 7.7-8.8 11.2 1.9 3.9 7.3 3.6 14.5.2 6.9-3.3 10.6-7.2 8.8-11.2-1.6-3.4-6.9-3.9-14.5-.2zM3020.5 1076c-9.6 4.5-16.6 3.5-19.5-2.7-2.6-5.5.8-11.7 10.1-16.2 9.5-4.5 16.6-2.9 19.3 2.8 2.8 6-.9 11.9-9.9 16.1zm-7.7-15.1c-7.3 3.5-10.4 7.7-8.8 11.2 1.9 3.9 7.3 3.6 14.5.2 6.9-3.3 10.6-7.2 8.8-11.2-1.6-3.3-6.8-3.8-14.5-.2zM2761.7 594.3l-2 2.4-9.2-7.5 2-2.4 9.2 7.5zM2779.7 592.4l-6.1-1.2 1.4-3 7.6 1.5 2.8 2.3-19.6 24.3-3.2-2.6 17.1-21.3zM2800.7 624c-6.7 8.2-13.4 10.3-18.8 6-4.7-3.8-4.4-10.9 2.1-19 6.6-8.1 13.7-9.8 18.6-5.8 5.1 4.2 4.3 11.1-1.9 18.8zm-13.5-10.3c-5.1 6.3-6.1 11.5-3.1 13.9 3.4 2.7 8.1.1 13.1-6.1 4.8-6 6.5-11.1 3.1-13.9-2.8-2.3-7.7-.5-13.1 6.1zM2798.4 632.4c2.5-3.1 6.1-3.7 10.1-2.6l.1-.1c-1.7-3.4-1.1-6.5.6-8.6 3.1-3.8 8.5-3.8 12.7-.4 4.7 3.8 4.7 8.7 2.2 11.7-1.7 2.1-4.5 3.4-8.6 2.4l-.1.1c2.1 3.6 2.2 7.3-.2 10.2-3.4 4.2-9.3 4.1-14 .4-5.1-4-5.7-9.5-2.8-13.1zm13.1 10.5c2.4-2.9 1.5-6-1-9.6-3.5-1.5-6.5-.8-8.4 1.5-2.1 2.4-2 6 1.1 8.6 2.9 2.3 6.3 2 8.3-.5zm.8-19.5c-2 2.4-1.2 5.2 1 8.2 2.7 1 5.5.8 7.3-1.4 1.6-1.9 2-4.9-.9-7.3-2.7-2.1-5.7-1.6-7.4.5zM2839 655c-6.7 8.2-13.4 10.3-18.8 6-4.7-3.8-4.4-10.9 2.1-19 6.6-8.1 13.7-9.8 18.6-5.8 5.1 4.2 4.3 11.1-1.9 18.8zm-13.5-10.3c-5.1 6.3-6.1 11.5-3.1 13.9 3.4 2.7 8.1.1 13.1-6.1 4.8-6 6.5-11.1 3.1-13.9-2.8-2.3-7.8-.5-13.1 6.1zM2861.1 497.8l-1.9 2.5-9.5-7 1.9-2.5 9.5 7zM2878.9 495.2l-6.2-.9 1.3-3.1 7.7 1.1 2.9 2.1-18.5 25.1-3.3-2.4 16.1-21.9zM2901.3 525.8c-6.3 8.5-12.9 10.9-18.5 6.8-4.9-3.6-4.8-10.7 1.2-19 6.2-8.4 13.3-10.4 18.4-6.6 5.2 3.8 4.8 10.8-1.1 18.8zm-13.9-9.7c-4.8 6.5-5.5 11.7-2.5 14 3.5 2.6 8.1-.3 12.9-6.7 4.6-6.2 6-11.4 2.4-14-3-2.2-7.8-.1-12.8 6.7zM2926 528.8c-.7-.6-1.6-1.2-2.7-1.7-6-3-11.7-1.2-15.3 2.5l.1.1c2.4-.7 5.4-.5 8.2 1.6 4.4 3.3 5.2 8.8 1.6 13.7-3.4 4.6-9.7 6.5-14.9 2.7-5.4-4-5.8-10.7-1-17.3 3.6-4.9 8.3-7.5 12.6-8.2 3.6-.5 7.3.3 10.8 2.2 1.1.6 2 1.2 2.6 1.6l-2 2.8zm-11.6 13.7c2.6-3.6 2.2-7.3-.9-9.6-2-1.5-4.9-1.6-7.1-.5-.5.2-1 .6-1.5 1.2-3 4.2-3.3 8.6.2 11.3 2.9 2.2 6.6 1.2 9.3-2.4zM2940.9 555c-6.3 8.5-12.9 10.9-18.5 6.8-4.9-3.6-4.8-10.7 1.2-19 6.2-8.4 13.3-10.4 18.4-6.6 5.3 3.9 4.8 10.8-1.1 18.8zm-13.9-9.7c-4.8 6.5-5.5 11.7-2.5 14 3.5 2.6 8.1-.3 12.9-6.7 4.6-6.2 6-11.4 2.5-14-3-2.1-7.9-.1-12.9 6.7zM3010.3 239l-2 2.4-9-7.7 2-2.4 9 7.7zM3028.3 237.6l-6.1-1.3 1.5-3 7.6 1.6 2.7 2.3-20.2 23.8-3.1-2.6 17.6-20.8zM3048.6 269.6c-6.9 8.1-13.7 10-18.9 5.5-4.6-3.9-4.1-11 2.5-18.9 6.8-8 13.9-9.4 18.8-5.3 4.9 4.3 4 11.1-2.4 18.7zm-13.3-10.6c-5.3 6.2-6.3 11.3-3.4 13.8 3.3 2.8 8.1.3 13.3-5.8 5-5.9 6.7-11 3.4-13.8-2.8-2.4-7.8-.7-13.3 5.8zM3051.2 292.7l5.5-6.5-11.1-9.4 1.8-2.1 23.5-6.2 3.5 3-12.6 14.8 3.3 2.8-2.1 2.5-3.3-2.8-5.5 6.5-3-2.6zm7.6-9l6.7-7.9c1.1-1.2 2.1-2.5 3.3-3.6l-.1-.1c-1.9.8-3.4 1.3-5 1.8L3051 277l-.1.1 7.9 6.6zM3086.1 301.5c-6.9 8.1-13.7 10-18.9 5.5-4.6-3.9-4.1-11 2.5-18.9 6.8-8 13.9-9.4 18.8-5.3 5 4.2 4 11.1-2.4 18.7zm-13.2-10.6c-5.3 6.2-6.3 11.3-3.4 13.8 3.3 2.8 8.1.3 13.3-5.8 5-5.9 6.7-11 3.4-13.8-2.9-2.4-7.8-.7-13.3 5.8zM3124.2 199.6l-2.5 1.9-7-9.5 2.5-1.9 7 9.5zM3142 202.3l-5.6-2.7 2.1-2.6 7 3.3 2.1 2.9-25.1 18.6-2.4-3.3 21.9-16.2zM3154.5 238.1c-8.5 6.3-15.6 6.6-19.7 1.1-3.6-4.9-1.5-11.6 6.8-17.8 8.4-6.2 15.7-6 19.5-.9 3.8 5.2 1.3 11.7-6.6 17.6zm-10.5-13.3c-6.5 4.8-8.7 9.6-6.5 12.7 2.6 3.5 7.8 2.1 14.3-2.6 6.2-4.6 9.1-9.1 6.5-12.7-2.3-3-7.5-2.5-14.3 2.6zM3143.9 250.7l2.1-1.5 4.6.8c10.8 1.9 16.2 2.4 20-.4 2.5-1.9 4-4.9 1.2-8.6-1.7-2.3-4.2-3.3-6.1-3.8l1.6-2.8c2.8.7 5.7 2.3 7.8 5.2 4 5.4 2 10.4-1.6 13.1-4.6 3.4-10.9 2.8-19.9 1.3l-3.3-.6-.1.1 8.3 11.3-2.8 2.1-11.8-16.2zM3183.7 277.7c-8.5 6.3-15.6 6.6-19.7 1.1-3.6-4.9-1.5-11.6 6.8-17.8 8.4-6.2 15.7-6 19.5-.9 3.9 5.2 1.4 11.7-6.6 17.6zm-10.4-13.3c-6.5 4.8-8.7 9.6-6.5 12.7 2.6 3.5 7.8 2.1 14.3-2.6 6.2-4.6 9.1-9.1 6.5-12.7-2.3-3-7.5-2.5-14.3 2.6zM2035.3 124.8l-2.9 1.2-4.6-10.9 2.9-1.2 4.6 10.9zM2052 131.7l-4.8-4 2.7-2 6 4.9 1.4 3.3-28.8 12-1.6-3.8 25.1-10.4zM2061.5 154.4l-4.8-4 2.7-2 6 4.9 1.4 3.3-28.8 12-1.6-3.8 25.1-10.4zM2065 192.1c-9.8 4.1-16.7 2.7-19.4-3.7-2.4-5.6 1.3-11.6 10.8-15.7 9.7-4 16.7-2.1 19.2 3.8 2.5 6.1-1.4 11.8-10.6 15.6zm-7-15.4c-7.5 3.1-10.8 7.2-9.3 10.8 1.7 4 7.1 3.9 14.5.9 7.1-3 11-6.7 9.3-10.8-1.4-3.4-6.6-4.2-14.5-.9zM2074.5 214.9c-9.8 4.1-16.7 2.7-19.4-3.7-2.4-5.6 1.3-11.6 10.8-15.7 9.7-4 16.7-2.1 19.2 3.8 2.5 6-1.4 11.7-10.6 15.6zm-7-15.5c-7.5 3.1-10.8 7.2-9.3 10.8 1.7 4 7.1 3.9 14.5.9 7.1-3 11-6.7 9.3-10.8-1.4-3.4-6.6-4.2-14.5-.9zM1815.9 289.2l-.9 3-11.3-3.5.9-3 11.3 3.5zM1831.8 280.8l-6.1 1.2.2-3.3 7.6-1.5 3.4 1.1-9.2 29.8-3.9-1.2 8-26.1zM1855.3 288.1l-6.1 1.2.2-3.3 7.6-1.5 3.4 1.1-9.2 29.8-3.9-1.2 8-26.1zM1862.1 318.7l.8-2.5 4.1-2.1c9.8-4.9 14.5-7.7 15.9-12.2.9-3 .3-6.3-4.1-7.7-2.7-.8-5.4-.1-7.1.6l-.4-3.2c2.6-1.1 5.9-1.5 9.4-.4 6.4 2 7.8 7.2 6.5 11.5-1.7 5.5-7.1 8.7-15.2 12.8l-3.1 1.5v.1l13.4 4.1-1 3.3-19.2-5.8zM1910.1 316.8c-3.1 10.1-8.6 14.6-15.2 12.5-5.8-1.8-8.1-8.5-5.1-18.4 3.1-10 9.1-14.2 15.1-12.3 6.3 2 8.1 8.7 5.2 18.2zm-16.3-4.5c-2.4 7.8-1.4 12.9 2.3 14 4.1 1.3 7.6-2.9 9.9-10.6 2.3-7.3 1.9-12.7-2.3-14-3.5-1.1-7.4 2.5-9.9 10.6zM1424.6 295.5v3.1h-11.9v-3.1h11.9zM1437.4 282.8l-5.5 2.9-.8-3.2 6.8-3.6h3.6v31.2h-4.1v-27.3zM1462 282.8l-5.5 2.9-.8-3.2 6.8-3.6h3.6v31.2h-4.1v-27.3zM1490.5 310.1v-8.5H1476v-2.8l13.9-19.9h4.6v19.4h4.4v3.3h-4.4v8.5h-4zm0-11.8v-10.4c0-1.6 0-3.3.1-4.9h-.1c-1 1.8-1.7 3.2-2.6 4.6l-7.6 10.6v.1h10.2zM1522.8 294.1c0 10.6-3.9 16.5-10.8 16.5-6.1 0-10.2-5.7-10.3-16 0-10.5 4.5-16.2 10.8-16.2 6.6 0 10.3 5.8 10.3 15.7zm-16.9.5c0 8.1 2.5 12.7 6.3 12.7 4.3 0 6.4-5 6.4-13 0-7.7-2-12.7-6.3-12.7-3.7 0-6.4 4.5-6.4 13zM1375.3 433.9v3.1h-11.9v-3.1h11.9zM1388.1 421.1l-5.5 2.9-.8-3.2 6.8-3.6h3.6v31.2h-4.1v-27.3zM1412.7 421.1l-5.5 2.9-.8-3.2 6.8-3.6h3.6v31.2h-4.1v-27.3zM1446 420.2c-.9 0-2 0-3.2.2-6.6 1.1-10.1 6-10.8 11.1h.1c1.5-2 4.1-3.6 7.5-3.6 5.5 0 9.4 4 9.4 10.1 0 5.7-3.9 11-10.4 11-6.7 0-11-5.2-11-13.3 0-6.1 2.2-11 5.3-14.1 2.6-2.5 6-4.1 10-4.6 1.2-.2 2.3-.2 3.1-.2v3.4zm-1.2 18c0-4.5-2.5-7.2-6.4-7.2-2.5 0-4.9 1.6-6 3.8-.3.5-.5 1.1-.5 1.9.1 5.1 2.4 8.9 6.9 8.9 3.5.1 6-2.9 6-7.4zM1473.5 432.5c0 10.6-3.9 16.5-10.8 16.5-6.1 0-10.2-5.7-10.3-16 0-10.5 4.5-16.2 10.8-16.2 6.6-.1 10.3 5.7 10.3 15.7zm-16.9.5c0 8.1 2.5 12.7 6.3 12.7 4.3 0 6.4-5 6.4-13 0-7.7-2-12.7-6.3-12.7-3.8-.1-6.4 4.5-6.4 13zM86.7 168.2l-3.4 5.2L81 171l4.2-6.5 3.2-1.7 14.9 27.4-3.6 2-13-24zM108.3 156.4l-3.4 5.2-2.3-2.4 4.2-6.5 3.2-1.7 14.9 27.4-3.6 2-13-24zM130.8 166.2c-1.9-3.5-1.1-7 1.4-10.3l-.1-.1c-3.8.2-6.4-1.4-7.7-3.8-2.4-4.3-.3-9.3 4.5-11.9 5.3-2.9 9.8-1 11.6 2.4 1.3 2.3 1.5 5.4-1 8.9l.1.1c4.1-.5 7.6.7 9.4 4.1 2.6 4.8.2 10.2-5 13-5.7 3.2-11.1 1.6-13.2-2.4zm-3-16.3c1.5 2.7 4.4 3.1 8 2.2 1.9-2.1 2.8-4.8 1.5-7.2-1.2-2.2-3.7-3.8-7.1-1.9-3.1 1.6-3.7 4.5-2.4 6.9zm17.6 8.1c-1.8-3.3-5-3.7-9.3-2.7-2.7 2.7-3.3 5.7-1.9 8.3 1.4 2.9 4.8 4.1 8.3 2.2 3.4-1.7 4.5-4.9 2.9-7.8zM167.1 137.3c5.1 9.3 4.4 16.3-1.7 19.6-5.4 2.9-11.7-.1-16.7-9.1-5-9.2-3.8-16.4 1.8-19.4 5.8-3.2 11.9.2 16.6 8.9zm-14.6 8.5c3.9 7.1 8.3 10 11.6 8.1 3.8-2.1 3.2-7.5-.6-14.5-3.7-6.7-7.8-10.2-11.6-8.1-3.3 1.8-3.5 7.1.6 14.5zM294.6 364.7l2.4 2-7.7 9.1-2.4-2 7.7-9.1zM293.1 346.7l-1.3 6.1-3-1.5 1.6-7.6 2.3-2.7 23.8 20.2-2.6 3.1-20.8-17.6zM309 327.9l-1.3 6.1-3-1.5 1.6-7.6 2.3-2.7 23.8 20.2-2.6 3.1-20.8-17.6zM329.8 301.9c-.6.6-1.3 1.5-1.9 2.5-3.4 5.8-2 11.6 1.5 15.4l.1-.1c-.5-2.4-.1-5.4 2.1-8.1 3.6-4.2 9.1-4.6 13.8-.7 4.4 3.7 5.9 10.1 1.7 15-4.3 5.1-11.1 5.1-17.3-.2-4.7-4-7-8.8-7.3-13.1-.3-3.6.8-7.3 2.9-10.6.7-1.1 1.3-1.9 1.8-2.5l2.6 2.4zm12.9 12.5c-3.4-2.9-7.1-2.7-9.6.3-1.6 1.9-2 4.8-1 7.1.2.5.5 1.1 1.1 1.6 4 3.2 8.4 3.9 11.2.5 2.5-2.8 1.8-6.6-1.7-9.5zM357 288.8c8.1 6.9 10 13.6 5.6 18.9-3.9 4.7-11 4.1-18.9-2.5-8-6.8-9.5-13.9-5.4-18.8 4.2-4.9 11.1-4 18.7 2.4zM346.4 302c6.2 5.2 11.3 6.3 13.8 3.4 2.8-3.3.3-8.1-5.8-13.3-5.9-5-11-6.7-13.8-3.4-2.4 2.9-.7 7.9 5.8 13.3zM537.7 587.3l2.9 1.3-4.8 10.8-2.9-1.3 4.8-10.8zM531.2 570.5l.4 6.2-3.3-.6-.6-7.7 1.5-3.3 28.5 12.6-1.7 3.7-24.8-10.9zM541.2 548l.4 6.2-3.3-.6-.6-7.7 1.5-3.3 28.5 12.6-1.6 3.7-24.9-10.9zM564.9 542c-3.6-1.6-5.2-4.9-5.1-9h-.2c-2.9 2.5-6 2.8-8.4 1.7-4.5-2-5.9-7.2-3.7-12.2 2.4-5.5 7.1-6.8 10.7-5.2 2.4 1.1 4.5 3.4 4.6 7.6l.1.1c3-2.9 6.5-4 9.9-2.5 5 2.2 6.4 7.9 4 13.4-2.5 5.9-7.7 8-11.9 6.1zm-12.3-11.1c2.9 1.3 5.3-.2 7.7-3.1.3-2.8-.7-5.5-3.3-6.6-2.3-1-5.3-.7-6.8 2.8-1.4 3.1-.1 5.8 2.4 6.9zm19-4.3c-3.5-1.5-6.2.1-9 3.5-.5 3.8.9 6.5 3.6 7.7 2.8 1.4 6.4.3 8-3.3 1.5-3.4.3-6.6-2.6-7.9zM576.1 496.9c9.7 4.3 13.5 10.3 10.7 16.6-2.5 5.6-9.4 7-18.8 3-9.6-4.2-13-10.7-10.5-16.5 2.7-6 9.5-7.1 18.6-3.1zm-6.4 15.7c7.4 3.3 12.6 2.9 14.2-.6 1.7-4-2-7.9-9.3-11.1-7-3.1-12.4-3.3-14.2.7-1.5 3.3 1.5 7.6 9.3 11zM865.9 967.8l-.8 3-11.5-3.1.8-3 11.5 3.1zM881.5 958.8l-6.1 1.4v-3.3l7.5-1.8 3.5.9-8.1 30.1-3.9-1.1 7.1-26.2zM905.3 965.2l-6.1 1.4v-3.3l7.5-1.8 3.5.9-8.1 30.1-3.9-1.1 7.1-26.2zM937.7 972.8c-.8-.3-1.9-.5-3.1-.6-6.7-.6-11.3 3.1-13.3 7.9h.1c1.9-1.5 4.9-2.4 8.2-1.5 5.3 1.4 8.1 6.3 6.5 12.2-1.5 5.5-6.6 9.6-12.9 7.9-6.4-1.7-9.3-7.9-7.2-15.7 1.6-5.9 5-10 8.7-12.2 3.2-1.8 6.9-2.4 10.8-1.9 1.3.1 2.3.4 3 .6l-.8 3.3zm-5.8 17.1c1.2-4.3-.6-7.6-4.4-8.6-2.5-.7-5.1.3-6.8 2.1-.4.4-.7.9-.9 1.7-1.2 5 .1 9.3 4.3 10.4 3.5 1 6.6-1.3 7.8-5.6zM961.1 991.8c-2.7 10.2-8.1 14.9-14.7 13.1-5.9-1.6-8.4-8.2-5.8-18.2 2.7-10.1 8.6-14.5 14.7-12.9 6.3 1.8 8.4 8.4 5.8 18zm-16.5-3.9c-2.1 7.8-.9 12.9 2.8 13.9 4.2 1.1 7.5-3.2 9.5-10.9 2-7.4 1.4-12.8-2.8-13.9-3.5-1-7.3 2.7-9.5 10.9zM1193.9 913.1l3 .9-3.5 11.3-3-.9 3.5-11.3zM1185.5 897.2l1.2 6.1-3.3-.2-1.5-7.6 1.1-3.4 29.8 9.3-1.2 3.9-26.1-8.1zM1192.8 873.7l1.2 6.1-3.3-.2-1.5-7.6 1.1-3.4 29.8 9.3-1.2 3.9-26.1-8.1zM1201.8 841.6c-.3.8-.6 1.9-.8 3.1-.9 6.7 2.7 11.4 7.4 13.7v-.1c-1.4-2-2.2-5-1.2-8.3 1.6-5.3 6.6-7.8 12.4-6 5.5 1.7 9.3 7 7.4 13.2-2 6.4-8.2 9-16 6.6-5.9-1.8-9.8-5.4-11.9-9.2-1.7-3.2-2.1-7-1.4-10.9.2-1.2.5-2.3.7-3l3.4.9zm16.8 6.5c-4.3-1.3-7.6.3-8.7 4-.8 2.4.1 5.1 1.9 6.9.4.4.9.8 1.6 1 4.9 1.4 9.3.3 10.6-3.9 1-3.4-1.1-6.7-5.4-8zM1221.7 819c10.1 3.1 14.6 8.6 12.5 15.2-1.8 5.8-8.5 8.1-18.4 5.1-10-3.1-14.2-9.1-12.3-15.2 2-6.3 8.7-8.1 18.2-5.1zm-4.6 16.3c7.7 2.4 12.9 1.4 14-2.3 1.3-4.1-2.9-7.6-10.5-10-7.3-2.3-12.7-1.9-14 2.3-1.1 3.5 2.4 7.5 10.5 10zM1648.9 759.3l-.8 3-11.5-3.1.8-3 11.5 3.1zM1664.6 750.3l-6.1 1.4v-3.3l7.5-1.8 3.5.9-8.1 30.1-3.9-1.1 7.1-26.2zM1688.3 756.7l-6.1 1.4v-3.3l7.5-1.8 3.5.9-8.1 30.1-3.9-1.1 7.1-26.2zM1720.7 764.3c-.8-.3-1.9-.5-3.1-.6-6.7-.6-11.3 3.1-13.3 7.9h.1c1.9-1.5 4.9-2.4 8.2-1.5 5.3 1.4 8.1 6.3 6.5 12.2-1.5 5.5-6.6 9.6-12.9 7.9-6.4-1.7-9.3-7.9-7.2-15.7 1.6-5.9 5-10 8.7-12.2 3.2-1.8 6.9-2.4 10.8-1.9 1.3.1 2.3.4 3 .6l-.8 3.3zm-5.8 17.1c1.2-4.3-.6-7.6-4.4-8.6-2.5-.7-5.1.3-6.8 2.1-.4.4-.7.9-.9 1.7-1.2 5 .1 9.3 4.3 10.4 3.5 1 6.6-1.3 7.8-5.6zM1744.2 783.3c-2.7 10.2-8.1 14.9-14.7 13.1-5.9-1.6-8.4-8.2-5.8-18.2 2.7-10.1 8.6-14.5 14.7-12.9 6.2 1.8 8.3 8.4 5.8 18zm-16.5-3.9c-2.1 7.8-.9 12.9 2.8 13.9 4.2 1.1 7.5-3.2 9.5-10.9 2-7.4 1.4-12.8-2.8-13.9-3.6-1-7.3 2.7-9.5 10.9zM502.7 1776.5l-1.3 2.9-10.8-4.8 1.3-2.9 10.8 4.8zM519.5 1770l-6.2.4.6-3.3 7.7-.6 3.3 1.5-12.6 28.5-3.7-1.6 10.9-24.9zM542.1 1780l-6.2.4.6-3.3 7.7-.6 3.3 1.5-12.6 28.5-3.7-1.6 10.9-24.9zM572.9 1792.5c-.8-.4-1.8-.8-3-1.1-6.5-1.7-11.7 1.4-14.4 5.8l.1.1c2.2-1.2 5.2-1.6 8.3-.2 5 2.2 7 7.4 4.5 13-2.3 5.2-8 8.5-13.9 5.9-6.1-2.7-8-9.2-4.7-16.6 2.5-5.6 6.5-9.2 10.5-10.7 3.4-1.3 7.2-1.3 11-.2 1.2.3 2.2.7 2.9 1l-1.3 3zm-8.4 16c1.8-4.1.6-7.6-3-9.1-2.3-1-5.1-.5-7.1 1.1-.5.3-.9.8-1.2 1.5-2 4.7-1.4 9.2 2.7 10.9 3.3 1.5 6.8-.3 8.6-4.4zM593.1 1814.9c-4.3 9.7-10.3 13.5-16.6 10.7-5.6-2.5-7-9.4-3-18.8 4.2-9.6 10.7-13 16.5-10.5 6.1 2.6 7.1 9.5 3.1 18.6zm-15.7-6.4c-3.3 7.4-2.9 12.6.7 14.2 4 1.7 7.9-2 11.1-9.3 3.1-7 3.3-12.4-.7-14.2-3.4-1.5-7.7 1.5-11.1 9.3zM416.9 1597.8l-.8 3-11.5-3.1.8-3 11.5 3.1zM432.5 1588.8l-6.1 1.4v-3.3l7.5-1.8 3.5.9-8.1 30.1-3.9-1.1 7.1-26.2zM456.3 1595.2l-6.1 1.4v-3.3l7.5-1.8 3.5.9-8.1 30.1-3.9-1.1 7.1-26.2zM476.8 1628.9l2.2-8.2-14-3.8.7-2.7 18.6-15.6 4.4 1.2-5 18.7 4.2 1.1-.9 3.2-4.2-1.1-2.2 8.2-3.8-1zm3.1-11.4l2.7-10.1c.4-1.6.9-3.1 1.4-4.7h-.1c-1.4 1.5-2.5 2.6-3.7 3.8l-10.1 8.3v.1l9.8 2.6zM512.1 1621.8c-2.7 10.2-8.1 14.9-14.7 13.1-5.9-1.6-8.4-8.2-5.8-18.2 2.7-10.1 8.6-14.5 14.7-12.9 6.3 1.8 8.4 8.4 5.8 18zm-16.5-3.9c-2.1 7.8-.9 12.9 2.8 13.9 4.2 1.1 7.5-3.2 9.5-10.9 2-7.4 1.4-12.8-2.8-13.9-3.5-1-7.3 2.7-9.5 10.9zM447.9 1500.8l-1.2 2.9-11-4.4 1.2-2.9 11 4.4zM464.5 1493.8l-6.2.7.4-3.3 7.7-.8 3.3 1.3-11.7 28.9-3.8-1.5 10.3-25.3zM487.4 1503l-6.2.7.4-3.3 7.7-.8 3.3 1.3-11.7 28.9-3.8-1.5 10.3-25.3zM491.5 1534.1l1-2.4 4.3-1.7c10.2-4.1 15.1-6.4 16.9-10.8 1.2-2.9.9-6.2-3.5-8-2.6-1.1-5.3-.6-7.1 0l-.1-3.3c2.7-.9 6-1 9.4.4 6.2 2.5 7.1 7.8 5.5 12-2.2 5.3-7.8 8.1-16.2 11.5l-3.2 1.2v.1l13 5.2-1.3 3.2-18.7-7.4zM539.5 1536.2c-4 9.8-9.8 13.8-16.2 11.2-5.7-2.3-7.3-9.1-3.6-18.7 3.9-9.7 10.3-13.4 16.1-11 6.2 2.5 7.4 9.3 3.7 18.5zm-15.9-5.8c-3 7.5-2.4 12.7 1.1 14.2 4 1.6 7.8-2.3 10.8-9.7 2.9-7.1 2.9-12.5-1.1-14.2-3.4-1.4-7.6 1.8-10.8 9.7zM488.8 1405.6l-1.7 2.6-9.9-6.5 1.7-2.6 9.9 6.5zM506.4 1402l-6.2-.6 1.1-3.1 7.7.7 3 2-17.2 26-3.4-2.2 15-22.8zM504.3 1433.3l1.4-2.2 4.5-.9c10.8-1.9 16.1-3.3 18.7-7.2 1.7-2.6 2.1-5.9-1.8-8.5-2.4-1.6-5.1-1.7-7-1.5l.5-3.2c2.8-.3 6.1.2 9.1 2.2 5.6 3.7 5.4 9.1 3 12.8-3.2 4.8-9.2 6.4-18.2 8l-3.4.5-.1.1 11.7 7.7-1.9 2.9-16.5-10.7zM550.9 1445c-5.9 8.8-12.4 11.6-18.1 7.8-5.1-3.4-5.4-10.4.2-19.1 5.8-8.7 12.7-11 18-7.6 5.5 3.7 5.4 10.6-.1 18.9zm-14.4-9c-4.5 6.8-4.9 12-1.7 14.1 3.6 2.4 8.1-.7 12.5-7.3 4.2-6.4 5.4-11.7 1.7-14.1-3.1-2-7.8.3-12.5 7.3zM571.5 1458.6c-5.9 8.8-12.4 11.6-18.1 7.8-5.1-3.4-5.4-10.4.2-19.1 5.8-8.7 12.7-11 18-7.5 5.4 3.5 5.3 10.5-.1 18.8zm-14.4-9c-4.5 6.8-4.9 12-1.7 14.1 3.6 2.4 8.1-.7 12.5-7.3 4.2-6.4 5.4-11.7 1.7-14.1-3.1-2-7.9.2-12.5 7.3z"/><path class="st2" d="M208.9 1635.5l21.1 1.5M210.8 1656l19.2-1.5M215.5 1681.6l21-5M220.4 1701.9l19.6-2.4M228 1728.3l18.5-6.3M235.9 1752l19.1-7M244 1773.7l22-9.7M255 1798.5l20.5-11.5M266.3 1818.5l17.7-8M282.5 1841.3l14.6-7.3M294.8 1858.5l15.7-9M307.2 1875.4l14.3-8.2M321.7 1894.6l13.9-11.6M335.6 1912.1l13.9-13.6M352.6 1931.8L369 1915M369.2 1948.9l16.3-16.9M387.6 1964.1L404 1946M409.6 1977.8l14.9-22.7M430.1 1989.2l11.4-19.2M457.3 1999l2.7-21.2M484.6 2001.6l-2.6-22M506.6 1999.2l-4.1-21.4M528.2 1993.7l-7.2-20.1M550 1983.6l-8-17.2M562.2 1959.5l7.7 20.1M587.5 1948.8l8.5 20.8M607.2 1941.3l9 21.9M631.2 1938.8l6.7 21.7M655.2 1930.5l7.2 23.5M677 1924l7.4 23.9M697.2 1917.8l9 21.2M716.8 1904l11.4 21M734.2 1891.8l10.2 20.6M750.5 1880.8l10.3 19M771.8 1867.2l9.2 23M800 1863.2l1.5 22M828.2 1872.5l-11.2 21.8M849.3 1890.2l-24 18.9M852 1920l-20.3 8.4M861.5 1949.6l-22.4 5.6M868.1 1969.5l-21.4 8.3M881 1984l-15 14M920.5 2003.2l-6.5 22.2M898.9 1993.9l-10.1 18.1M939.8 2010l-2 22.7M963.5 2011l.3 23M984.8 2011l1.5 24.5M1005.2 2007l4.1 25M1025.2 2002.9l5.3 24.1M1045.5 1999l9.5 24.2M1063 1992.8l14.8 22.2M1082.2 1984.5l15.3 13.7M1095.5 1967.8l23.4 10M1111.1 1936.8l-16.3 19.4M1089.9 1922.9l-14.1 17.1M1066.6 1909.2l-14.1 20.3M1041.2 1897.5l-13.3 18.3M1022 1887.5l-11.2 17.3M1002.9 1876.2l-13.7 23.5M979.8 1867.2l-8.8 20.7M959 1859.2l-10.5 22M932.8 1849.8l-7.6 20.4M910.5 1843.5l-7.5 23.7M882.9 1835.6l-5.1 22.6M855.2 1830.5l-4.9 22.3M830.7 1822.1l-4.5 23.7M809.6 1815.5l-4.1 24M790 1810.2l-5.8 22.3M769.4 1801l-7.2 20.4M748.5 1794.2l-7.3 19M730.5 1784.4l-8 17.8M714.1 1775.5l-9.9 17.8M697 1767.8l-12 16.6M677.5 1755.8l-10.8 16M659 1741l-13 15.2M640.8 1722.2l-13.6 15M623 1707.5l-13.5 16M607.2 1693.5l-16.7 15.5M586.8 1676.6l-13 14.4M567.8 1658.5l-15.6 16.3M548 1643.5l-16 18.7M382.6 1595.2l-1.4 21.6M359.2 1593.6l-.7 24.2M335.6 1592.3v24.5M310.2 1594.2l-.4 22.6M284.2 1593l1 23.8M263.4 1594.7l1.9 22.1M237.2 1599.4l6.3 19.6M214.8 1613l18 14M345.8 1705.8l18.5 14.5M365.4 1685.6l15.3 20.4M395.8 1677.8l2.2 28.5M420.3 1683.8l-.6 23.5M439.3 1713.1l8.1-21.6M460.7 1724.3l8.9-23.1M483.3 1733.7l9.1-21.9M504.6 1743.7l8.1-21M526.3 1754.7l9.7-22.4M546 1763.8l11-20.3M566.1 1773.3l9.7-22.4M587 1784.4l13.6-22.3M609 1795.3l15.6-22M627.7 1807.7l18-21.2M644 1821.4l21.3-17.6M656.3 1840l19.7-8.7M657.3 1855.3l25.3 10.4M651.3 1867.2l15.4 21.6M634 1878l9.8 21.7M616.8 1882l8.6 25.6M598.9 1887.7l9 26.8M580.2 1894.8l6.8 28.2M562 1897l4.1 32.5M538 1905.3l2 28.4M515.7 1905.3L514 1935M495 1906.7l-7.1 28.3M477.3 1897l-12.2 29M462.3 1886.7l-18.9 29.7M441.7 1878.7l-17.9 22.9M425.3 1860.5l-21.3 21.1M410 1841.6l-20.3 18.9M399.8 1824.3l-26.8 14.8M361.4 1818.5l25-11.5M350.4 1795.8l26.9-9.5M342.6 1776.1l23.1-5.7M335.6 1750l25.2-1.5M337.6 1725.2l23.2 5.8M458.6 1788l17.4 4.8M452.9 1811.2l18.3-1.5M469.6 1840.2l13.7-16.2M499.7 1831.7l-7.3 22.3M524.6 1842.8l-2.9 20.5M546 1846.9l-.4 23.6M566.1 1849.3l2.3 20.1M580.2 1842.8l8.3 18.5M583.6 1829.7l19.3 13.1M533.4 640.7l20.6-1.2M536.6 665.1l22.9-1.1M540.3 685.7l21.7-4.2M607 484.4l-1.3 23.6M632.2 485.4l-8.9 26.9M642 521l15.8-22.2M655 546l18.1-16.3M659.3 574.7l25.4-7.4M657 604l34.2-2.7M656.3 626l35.1 4M653.3 651.7l34.6 3.4M649.9 673.7l28.1 3M641 698.7l35.8-1.8M680.1 715.9l-30.2 8.1M685.7 735.7l-25.4 9.3M697.4 754.9l-24.4 15M707.9 769.9l-18.2 18.8M723.1 786.8l-15.4 20.5M740 801l-14 19.7M759.4 815.1l-15.7 20.6M776.8 828.5l-14.1 20.2M801.7 857l-25 3.7M783.2 888L768 868.7M757.1 895.7l-2.8-30.7M733 897.6l4.3-30.9M707.8 888.6l7.6-27.6M686.8 878.3l8.9-26.3M666.5 863.6l13.2-25M648 846l16-26M629.3 826.7l18-20.4M613.2 809.1L630 792M600 791l21.6-17.7M583.6 772.3L607 756M571.2 754.3l24.1-17.6M559.5 734.4l23.8-13.1M548.1 709.8l23.3-10.1M493.2 514l21.8 5.3M506.3 489l21.4 7.2M523.9 469.6l19.8 11.1M538.9 453l17.1 9.7M553.3 437l21 9M565.3 415.3l19.7 12.4M577 392l21.3 12.7M590 368l19.3 14.3M605.3 348.3l14.4 16.4M632.7 326.5l.3 26.5M658.4 346.8l-14.1 17.9M672 378.8l-17.7 13.9M681 399l-17 15M691 417.7l-17.1 18M705.3 433.7l-17.3 17M722.7 448.4l-17 16.6M739.1 459.5L721.7 480M742 498.8l17.3-23.7M762 507.7l19.7-19.5M778.3 526.3l24.8-19.6M785.3 546l30.1-6.1M790.7 568.7l28.4-2.6M790.7 592.7l28.9.6M786.3 618.3l31.4-.2M784.7 642.3l31.8-.3M782 664.6h35.5M784 691.3l36.9-1.6M789.2 716.7L824 712M830.7 725.1l-28.2 16.6M838 745.5l-18.7 16.9M850.7 760.7L837 782.2M868.6 772.6L856 794.7M887.3 785.6l-11 20.4M909.3 799.4l-11 20.3M930.7 808.8l-6 19.5M958.4 817.2L955 840M982.7 818.6l.3 20M1008.3 810.8l-2.6 22.2M1042.3 816.5l-20.6 12.1M1011.3 838.6l13.3 15.3M985.7 851.1l13.4 19.9M965 858.8l17.8 24.5M944.7 878.3l16.7 22M929.7 887.3l14.4 27.4M915 901l1.7 25.9M896.7 897.6l-3.5 27.9M878.3 889.3l-7.5 32.5M849.3 891.3v26M822.3 891.3l1.6 31.1M799.7 897.6l2.8 30.7M781 901l.4 31.2M755.7 902.3v31.8M733 902.3l-3.5 29.9M714 897.6l-10.9 27.6M694 889.3L680 914M673 877l-17 24.6M654.3 865.2l-16 26.1M637.3 851.1L620 878.2M621.6 841.7l-22.6 23M603.7 821.9l-21.8 21.2M592.8 800.5l-23.5 21.4M478.7 705.9l25.3-11.2M490.1 726.3L514 713M502.7 745.5l21.6-12.1M520.1 768.5l19.6-16.9M533.4 783.6l17.8-13.7M552.9 803.1L570 788M469.6 678l25.4-4.3M466.2 653.4h29.1M465.7 630H493M467.8 605.4l27.5 2.6M471.4 583.6L493 585M479.3 561.3l24.8 4M485.1 534.3l21.6 5.4M1519.3 2120.5l15.7.4M1526.6 2090l15.4 9.1M1543.1 2067.6l11.5 15.3M1569.6 2058l-2.5 21.5M1572 2085.8l21 .2M1571.2 2100.4l25 2.9M1569.1 2117.5l23.7 3.2M1567.6 2138.6l24.6 3.3M1566.6 2151.5l12.3 21.6M1553.9 2159.2l-5 26.5M1543.9 2155.6l-14.9 15.6M1519.3 2140.2l18.1-3.6M1480.3 1911.2l22.7 8.2M1519.3 1899.6l-4.3 19.8M1538.3 1922.5l-18.5 10.7M1484.8 1945.2l16.7-3.9M1496.6 1970l14.9-10M1549 1941.3l-22.2 4.5M1532.2 1961.2l26.6 12.4M1523.8 1970.2l-1.3 24M1798.9 1022.3l5.4 19.7M1775.3 1032.1l6.4 19.9M1752 1040.7l8 23M1731.3 1048.3l8.7 21M1711.7 1071.7l14.6 14.3M1701.7 1096.8l20 3.2M1701.7 1123.1l23-4.4M1708.6 1145.4l19.7-10.4M1720.5 1163.8l20.8-11.1M1734.3 1182.8l21.7-11.8M1748.6 1204l20.7-8M1761.4 1227.9l18.6-6.2M1769.6 1252.1l18.7-2.4M1772.5 1277.7l22.5.3M1770.1 1299l23.2 2.7M1766.3 1321.9l25.2 4.4M1761.6 1346.9l22.1 2.4M1759 1369.7l22.7 3.3M1752 1392.9l23 3.1M1746.8 1414.5l23.6 4.8M1740.3 1437.7l23.2 6M1733.3 1457.6l23.7 5.4M1728.2 1482.7l20.1-1.4M1729 1509.3l19-12.6M1758.6 1506.3l-8.6 24.8M1767.7 1492.3l16 22.9M1783.7 1480l16.2 19.9M1798.9 1463.3l18.9 18.7M1814.7 1443l19.2 25M1842.7 1426.7l16.7 21.1M1971.7 1374.7l-3.7 24.5M2001.7 1377.7l-3 28.5M2028.7 1386.9l-4.4 26.8M2048.7 1397.7l-7.4 23.3M2073.3 1414.7l-7.6 22.5M2097.3 1428.3l-11.7 24.2M2116.3 1440.7l-12.3 25.7M2131.7 1455.5l-8.4 22.3M2157.7 1466.6l-4.7 23.3M2179 1471l1.7 18.9M2195.7 1461.7l13.3 17.3M2207.1 1437.2l19.8 10.9M2235.3 1416.9H2214M2224.6 1386.9l-20.9 7.5M2214 1362.3l-20 11.7M2205.8 1340.1l-21.1 10.9M2196.5 1321.3l-22.2 10.4M2182.8 1297.5l-22.8 13.8M2167.5 1275.4l-22.2 13.6M2151.7 1257l-20 16.3M2130.1 1238l-18.4 20M2105.6 1223.7L2088 1244M2083.4 1210.9l-18.7 23M2062 1200l-17 19.5M2043 1185.3l-16.5 19M1960.2 1106.6l-20.2 16.7M1975 1125l-21.3 19M1990.7 1140.2l-18 18M2009.5 1155.1l-17.2 18.9M2028.2 1171l-17.2 18M1944.7 1089l-20.4 15M1934.5 1068l-20.2 10.8M1927.3 1049.9l-24.6 10.4M1915 1026.7l-26.3 12M1824.3 1009.7l12.7 18M1827.5 987.6l22.5-3.3M1818.3 964.6l24-7.1M1807.8 943l22.5-5M1819.1 910.2l14.6 19.9M1850.9 913.1l-5.9 19.6M1874.5 935.3l-18.8 13.4M1885.3 959.3L1862 971M1896.7 982.1l-25 10.9M1908.2 1005.8l-28.5 9.9M2566.2 1906.2l18.8-.2M2579.1 1881.4l14.8 15.5M2599 1871.4l8.9 16.4M2621.8 1863.6l5.6 17.9M2642 1858.2l2.4 19M2662.6 1855.5l-.8 18.4M2685.3 1860.5l-5.9 15.5M2867.5 1736.4l17.7-2.6M2902 1741.2l-8.8 22.9M2920.8 1738.5l8.2 22.1M2931.8 1730.2l16.6 15.4M2942.8 1689.4l-9.6 23.6M2910.8 1690.4l4.7 23.4M2885.8 1705l15.2 16M2592.1 1472.8l17.4-3.1M2616.9 1492.9l7.4-16.7M2616.4 1446.1l9.1 18.6M2640.4 1437.7l5.1 21.5M2660.8 1432.5l5.9 22M2681.3 1426l3.5 23.3M2706.5 1423l.2 23.5M2734.8 1425.4l-6.3 23.8M2758.2 1441.7l-14.5 18.4M2777 1469l-27.8 2.2"/></svg>
