<svg xmlns="http://www.w3.org/2000/svg" width="313.554" height="290.324" viewBox="0 0 313.554 290.324">
  <g id="Group_3" data-name="Group 3" transform="translate(-4102 -965)">
    <g id="Scouts_SVG" data-name="Scouts SVG" transform="translate(4177 965)">
      <path id="path14" d="M66.425-478.442a79.834,79.834,0,0,1,11.688,31.5H90.962a91.678,91.678,0,0,0-13.847-38.47c-10.279-15.767-23.669-24.105-38.71-24.113h-.091A37.7,37.7,0,0,0,8.853-495.38a39.674,39.674,0,0,0-7.92,33.548l12.465-2.73a27.339,27.339,0,0,1,5.383-22.805,24.7,24.7,0,0,1,19.537-9.4h.064c13.309.008,22.6,9.969,28.043,18.324Z" transform="translate(-0.001 545.916)" fill="none"/>
      <path id="path16" d="M42.451-489.672a50.977,50.977,0,0,1,7.47,20.12h8.212a58.541,58.541,0,0,0-8.849-24.574c-6.57-10.071-15.127-15.4-24.74-15.4h-.058a24.1,24.1,0,0,0-18.828,9.037A25.33,25.33,0,0,0,.6-479.062l7.966-1.743A17.456,17.456,0,0,1,12-495.373a15.786,15.786,0,0,1,12.486-6h.041c8.506.005,14.442,6.368,17.922,11.7" transform="translate(0 555.687)" fill="#7414dc"/>
      <path id="path18" d="M362.133-171.507a61.283,61.283,0,0,1-10.243-23.151H338.924a72.254,72.254,0,0,0,10.6,27.308c-4.361,7.3-12.188,14.508-20.466,18.819l-.013-.007-.014.007c-8.277-4.311-16.1-11.516-20.465-18.819a72.254,72.254,0,0,0,10.6-27.308H306.193a61.282,61.282,0,0,1-10.242,23.151l-2.17,3.015,1.549,3.381c5.417,11.82,17.927,23.672,31.129,29.491l2.565,1.135.018-.008.019.008,2.565-1.135c13.2-5.819,25.712-17.671,31.129-29.491l1.549-3.381Z" transform="translate(-248.465 281.255)" fill="none"/>
      <path id="path20" d="M337.466-179.87a39.13,39.13,0,0,1-6.546-14.788h-8.287a46.136,46.136,0,0,0,6.772,17.443,34.479,34.479,0,0,1-13.08,12.02l-.009,0-.008,0a34.478,34.478,0,0,1-13.079-12.02A46.141,46.141,0,0,0,310-194.658h-8.287a39.13,39.13,0,0,1-6.546,14.788l-1.387,1.926.989,2.16c3.462,7.549,11.457,15.121,19.9,18.838l1.639.725.012-.005.012.005,1.64-.725c8.437-3.717,16.433-11.289,19.894-18.838l.99-2.16-1.387-1.926" transform="translate(-235.741 302.991)" fill="#7414dc"/>
      <path id="path22" d="M545.983-478.442a79.836,79.836,0,0,0-11.689,31.5H521.445a91.69,91.69,0,0,1,13.847-38.47c10.28-15.767,23.669-24.105,38.71-24.113h.091a37.706,37.706,0,0,1,29.461,14.148,39.674,39.674,0,0,1,7.919,33.548l-12.464-2.73a27.341,27.341,0,0,0-5.384-22.805,24.7,24.7,0,0,0-19.537-9.4h-.065c-13.308.008-22.6,9.969-28.042,18.324Z" transform="translate(-451.253 545.916)" fill="none"/>
      <path id="path24" d="M537.129-489.672a50.974,50.974,0,0,0-7.47,20.12h-8.212a58.542,58.542,0,0,1,8.85-24.574c6.57-10.071,15.127-15.4,24.74-15.4h.058a24.1,24.1,0,0,1,18.828,9.037,25.337,25.337,0,0,1,5.062,21.429l-7.966-1.743a17.456,17.456,0,0,0-3.441-14.567,15.786,15.786,0,0,0-12.486-6h-.041c-8.506.005-14.442,6.368-17.922,11.7" transform="translate(-418.427 555.687)" fill="#7414dc"/>
      <path id="path26" d="M285.654-608.445H298.5c-1.6-14.8-7.41-27.7-12.557-39.128-5.139-11.4-9.99-22.17-9.921-32.9.107-12.343,7.145-24.925,18.831-33.674,2.048-1.542,7.868-6.009,13.1-10.813,5.232,4.8,11.052,9.271,13.1,10.813,11.687,8.748,18.724,21.331,18.832,33.674.069,10.733-4.782,21.5-9.921,32.9-5.148,11.426-10.955,24.325-12.557,39.128h12.848c1.588-12.224,6.546-23.224,11.349-33.887,5.722-12.7,11.128-24.706,11.046-38.242-.148-16.315-9.1-32.675-23.937-43.784-1.751-1.324-10.857-8.263-16.092-13.9l-4.666-5.032-4.666,5.032c-5.235,5.638-14.341,12.576-16.092,13.9-14.843,11.109-23.789,27.469-23.938,43.784-.082,13.536,5.324,25.537,11.046,38.242,4.8,10.663,9.76,21.662,11.348,33.887Z" transform="translate(-227.379 743.29)" fill="none"/>
      <path id="path28" d="M277.573-657.154h8.211c-1.024-9.456-4.735-17.7-8.025-24.994-3.285-7.282-6.386-14.162-6.341-21.019.068-7.884,4.566-15.921,12.035-21.509,1.308-.985,5.028-3.838,8.372-6.906,3.344,3.068,7.064,5.921,8.373,6.906,7.468,5.589,11.966,13.626,12.035,21.509.045,6.857-3.056,13.737-6.341,21.019-3.29,7.3-7,15.538-8.025,24.994h8.211c1.015-7.809,4.184-14.835,7.253-21.646,3.657-8.115,7.112-15.781,7.059-24.428-.095-10.422-5.813-20.871-15.3-27.968a94.142,94.142,0,0,1-10.284-8.878l-2.983-3.214-2.982,3.214A94.171,94.171,0,0,1,278.56-731.2c-9.486,7.1-15.2,17.546-15.3,27.968-.053,8.646,3.4,16.313,7.059,24.428,3.069,6.811,6.238,13.837,7.253,21.646" transform="translate(-211.249 743.289)" fill="#7414dc"/>
      <path id="path30" d="M172.042-270.655v12.232H226.83v-12.232H172.042" transform="translate(-118.859 361.015)" fill="none"/>
      <path id="path32" d="M172.044-270.657v7.814h93.174v-7.814H172.044" transform="translate(-138.054 363.983)" fill="#7414dc"/>
    </g>
    <path id="Path_10" data-name="Path 10" d="M31.7.9A54.916,54.916,0,0,1,16.3-1.25,36.475,36.475,0,0,1,4-7.2L9-18.3a39.149,39.149,0,0,0,22.9,7.1q6.6,0,10.15-2.15A6.646,6.646,0,0,0,45.6-19.3a5.876,5.876,0,0,0-3.25-5.3Q39.1-26.5,30.8-28.3a63.984,63.984,0,0,1-14.85-4.6,19.4,19.4,0,0,1-8.1-6.65A17.615,17.615,0,0,1,5.3-49.3,19.2,19.2,0,0,1,8.85-60.7a23.661,23.661,0,0,1,9.95-7.85A36.073,36.073,0,0,1,33.6-71.4a47.594,47.594,0,0,1,14.45,2.2A29.617,29.617,0,0,1,59.1-63.3l-5,11.1q-9.7-7.1-20.4-7.1-6.1,0-9.6,2.35a7.373,7.373,0,0,0-3.5,6.45,5.8,5.8,0,0,0,1.35,3.95,11.214,11.214,0,0,0,4.5,2.75,68.751,68.751,0,0,0,8.95,2.5q13.6,3,19.55,7.7t5.95,13A18.59,18.59,0,0,1,53.2-4.85Q45.5.9,31.7.9ZM94.3.8Q82.3.8,75.4-6T68.5-24.5a27.108,27.108,0,0,1,3.3-13.55,22.734,22.734,0,0,1,9.3-9.05A29.1,29.1,0,0,1,95-50.3a32.971,32.971,0,0,1,10.4,1.65,22.373,22.373,0,0,1,8.1,4.45l-4,10.3a22.481,22.481,0,0,0-6.35-3.55A19.742,19.742,0,0,0,96.4-38.7q-5.9,0-9.15,3.5T84-24.8q0,6.9,3.25,10.45T96.4-10.8a19.742,19.742,0,0,0,6.75-1.25,22.481,22.481,0,0,0,6.35-3.55l4,10.4a23.853,23.853,0,0,1-8.4,4.4A35.874,35.874,0,0,1,94.3.8Zm49.6,0a28.657,28.657,0,0,1-13.7-3.15,22.09,22.09,0,0,1-9.1-8.9,27.426,27.426,0,0,1-3.2-13.55,27.426,27.426,0,0,1,3.2-13.55,21.774,21.774,0,0,1,9.1-8.85,29.036,29.036,0,0,1,13.7-3.1,29.036,29.036,0,0,1,13.7,3.1,21.774,21.774,0,0,1,9.1,8.85,27.426,27.426,0,0,1,3.2,13.55,27.426,27.426,0,0,1-3.2,13.55,22.09,22.09,0,0,1-9.1,8.9A28.657,28.657,0,0,1,143.9.8Zm0-11.5q11,0,11-14.1,0-7.1-2.85-10.6t-8.15-3.5q-11,0-11,14.1T143.9-10.7Zm82.5-38.4V0H211.7V-7a15.537,15.537,0,0,1-6.05,5.8,17.672,17.672,0,0,1-8.45,2q-9.3,0-13.85-5.15T178.8-19.9V-49.1h15.1v29.5q0,4.4,1.85,6.5T201.4-11a9.25,9.25,0,0,0,7.15-3,11.234,11.234,0,0,0,2.75-7.9V-49.1Zm38.8,38.8a40.319,40.319,0,0,0,4.8-.3l-.8,11a42.4,42.4,0,0,1-5.8.4q-11.2,0-16.35-4.9T241.9-19V-37.8h-9.3V-49.1h9.3V-63.5H257v14.4h12.3v11.3H257v18.7Q257-10.3,265.2-10.3ZM295.6.8A46.985,46.985,0,0,1,283.15-.75,30.871,30.871,0,0,1,273.4-5.2l4-10.4a33.476,33.476,0,0,0,8.8,4.2,32.349,32.349,0,0,0,9.7,1.5,10.777,10.777,0,0,0,5.45-1.15,3.518,3.518,0,0,0,1.95-3.15,3.284,3.284,0,0,0-1.35-2.8,14.247,14.247,0,0,0-5.05-1.8l-8-1.8q-7.1-1.6-10.45-4.95T275.1-34.7a13.051,13.051,0,0,1,2.65-8.1,17.5,17.5,0,0,1,7.5-5.5,28.773,28.773,0,0,1,11.05-2,33.591,33.591,0,0,1,10.3,1.6,31.638,31.638,0,0,1,9,4.5l-4,10q-7.8-5.4-15.4-5.4a10.687,10.687,0,0,0-5.5,1.2,3.765,3.765,0,0,0-2,3.4,2.949,2.949,0,0,0,1.2,2.5,13.035,13.035,0,0,0,4.2,1.7l8.3,1.9q7.5,1.7,10.95,5.15t3.45,9.35a12.973,12.973,0,0,1-5.65,11.15Q305.5.8,295.6.8Z" transform="translate(4098 1204)" fill="#7414dc"/>
    <path id="Path_11" data-name="Path 11" d="M-137.43-4.5V0h-17.46V-4.14l8.46-8.964q2.664-2.808,2.664-5.184,0-3.024-3.456-3.024a9.66,9.66,0,0,0-3.312.63,14.093,14.093,0,0,0-3.384,1.818l-1.764-4a11.262,11.262,0,0,1,3.888-2.07,15.6,15.6,0,0,1,4.86-.774,9.748,9.748,0,0,1,6.318,1.908,6.238,6.238,0,0,1,2.358,5.112,9.113,9.113,0,0,1-.918,4.068,18,18,0,0,1-3.078,4.176l-5.652,5.94Zm14.976-13.608a5.8,5.8,0,0,1,4.716,1.854q1.548,1.854,1.548,5.6V0h-5.436V-10.4a4.185,4.185,0,0,0-.666-2.628,2.5,2.5,0,0,0-2.07-.828,3.574,3.574,0,0,0-2.718,1.08,4.009,4.009,0,0,0-1.026,2.88V0h-5.436V-17.676h5.292v2.52a6.194,6.194,0,0,1,2.43-2.2A7.349,7.349,0,0,1-122.454-18.108ZM-94.23-25.38V0h-5.4V-2.628a5.536,5.536,0,0,1-2.25,2.142,6.915,6.915,0,0,1-3.294.774,7.214,7.214,0,0,1-4.05-1.17A7.762,7.762,0,0,1-112-4.158,11.259,11.259,0,0,1-112.986-9a11.02,11.02,0,0,1,.99-4.806,7.479,7.479,0,0,1,2.754-3.186,7.445,7.445,0,0,1,4.068-1.116,6.971,6.971,0,0,1,3.258.756,5.418,5.418,0,0,1,2.25,2.124V-25.38Zm-9.36,21.528a3.5,3.5,0,0,0,2.934-1.314A6,6,0,0,0-99.63-8.928a5.921,5.921,0,0,0-1.026-3.744,3.523,3.523,0,0,0-2.934-1.3,3.6,3.6,0,0,0-2.952,1.278A5.7,5.7,0,0,0-107.586-9a6.084,6.084,0,0,0,1.044,3.8A3.515,3.515,0,0,0-103.59-3.852Zm34.128-12.636a7.6,7.6,0,0,1,3.978,1.044,7.29,7.29,0,0,1,2.736,2.916,8.947,8.947,0,0,1,.99,4.248,8.832,8.832,0,0,1-1.116,4.446,7.907,7.907,0,0,1-3.1,3.06,9.048,9.048,0,0,1-4.464,1.1,9.334,9.334,0,0,1-7.632-3.276q-2.7-3.276-2.7-9.36a18.07,18.07,0,0,1,1.3-7.182A10.205,10.205,0,0,1-75.762-24.1a10.105,10.105,0,0,1,5.724-1.6,14.145,14.145,0,0,1,4.536.738,10.744,10.744,0,0,1,3.744,2.106l-1.8,4a10.709,10.709,0,0,0-6.264-2.448,4.413,4.413,0,0,0-3.834,2,10.92,10.92,0,0,0-1.53,5.814,5.95,5.95,0,0,1,2.34-2.178A7.051,7.051,0,0,1-69.462-16.488Zm-1.3,12.456A3.516,3.516,0,0,0-68.04-5.148,4.19,4.19,0,0,0-67.014-8.1a4.139,4.139,0,0,0-1.026-2.916,3.516,3.516,0,0,0-2.718-1.116,3.573,3.573,0,0,0-2.736,1.116A4.1,4.1,0,0,0-74.538-8.1a4.161,4.161,0,0,0,1.044,2.934A3.544,3.544,0,0,0-70.758-4.032ZM-49.7.324a8.159,8.159,0,0,1-7.038-3.348q-2.43-3.348-2.43-9.684,0-6.264,2.448-9.594a8.185,8.185,0,0,1,7.02-3.33,8.185,8.185,0,0,1,7.02,3.33q2.448,3.33,2.448,9.594,0,6.336-2.43,9.684A8.159,8.159,0,0,1-49.7.324Zm0-4.284a3.173,3.173,0,0,0,3.042-2.088,17.107,17.107,0,0,0,.954-6.66,16.7,16.7,0,0,0-.954-6.588A3.173,3.173,0,0,0-49.7-21.348,3.173,3.173,0,0,0-52.74-19.3a16.7,16.7,0,0,0-.954,6.588,17.107,17.107,0,0,0,.954,6.66A3.173,3.173,0,0,0-49.7-3.96Zm22.68.252a14.515,14.515,0,0,0,1.728-.108l-.288,3.96a15.264,15.264,0,0,1-2.088.144q-4.032,0-5.886-1.764T-35.406-6.84v-6.768h-3.348v-4.068h3.348V-22.86h5.436v5.184h4.428v4.068H-29.97v6.732Q-29.97-3.708-27.018-3.708Zm15.228-14.4a5.8,5.8,0,0,1,4.716,1.854q1.548,1.854,1.548,5.6V0h-5.436V-10.4a4.185,4.185,0,0,0-.666-2.628,2.5,2.5,0,0,0-2.07-.828,3.574,3.574,0,0,0-2.718,1.08A4.009,4.009,0,0,0-17.442-9.9V0h-5.436V-25.38h5.436v10.044a6.031,6.031,0,0,1,2.394-2.07A7.413,7.413,0,0,1-11.79-18.108ZM9.018-25.38h5.616V-4.572h11.34V0H9.018ZM44.586-7.812H33.066a4.551,4.551,0,0,0,1.386,3.078,4.869,4.869,0,0,0,3.222.954,8.547,8.547,0,0,0,2.718-.45,8.757,8.757,0,0,0,2.466-1.278L44.3-1.872a9.825,9.825,0,0,1-3.15,1.584,12.5,12.5,0,0,1-3.726.576,9.751,9.751,0,0,1-7.038-2.466A8.86,8.86,0,0,1,27.81-8.892a10,10,0,0,1,1.116-4.788,8.181,8.181,0,0,1,3.1-3.258,8.677,8.677,0,0,1,4.5-1.17A7.536,7.536,0,0,1,42.408-15.7a9.412,9.412,0,0,1,2.178,6.552Zm-7.92-6.552a3.2,3.2,0,0,0-2.466.99,4.931,4.931,0,0,0-1.134,2.862h6.948a4.7,4.7,0,0,0-.954-2.88A3,3,0,0,0,36.666-14.364Zm11.2-3.312H53.3V0H47.862Zm5.652-8.5V-21.1H47.682v-5.076ZM65.9.288a9.272,9.272,0,0,1-6.8-2.448A8.926,8.926,0,0,1,56.61-8.82,9.759,9.759,0,0,1,57.8-13.7a8.184,8.184,0,0,1,3.348-3.258,10.475,10.475,0,0,1,5-1.152,11.87,11.87,0,0,1,3.744.594,8.054,8.054,0,0,1,2.916,1.6L71.37-12.2a8.093,8.093,0,0,0-2.286-1.278,7.107,7.107,0,0,0-2.43-.45,4.273,4.273,0,0,0-3.294,1.26,5.324,5.324,0,0,0-1.17,3.744,5.394,5.394,0,0,0,1.17,3.762,4.241,4.241,0,0,0,3.294,1.278,7.107,7.107,0,0,0,2.43-.45A8.093,8.093,0,0,0,71.37-5.616l1.44,3.744A8.587,8.587,0,0,1,69.786-.288,12.915,12.915,0,0,1,65.9.288Zm25.272-8.1H79.65a4.551,4.551,0,0,0,1.386,3.078,4.869,4.869,0,0,0,3.222.954,8.547,8.547,0,0,0,2.718-.45,8.757,8.757,0,0,0,2.466-1.278l1.44,3.636a9.825,9.825,0,0,1-3.15,1.584,12.5,12.5,0,0,1-3.726.576,9.751,9.751,0,0,1-7.038-2.466,8.86,8.86,0,0,1-2.574-6.714A10,10,0,0,1,75.51-13.68a8.181,8.181,0,0,1,3.1-3.258,8.677,8.677,0,0,1,4.5-1.17A7.536,7.536,0,0,1,88.992-15.7,9.412,9.412,0,0,1,91.17-9.144Zm-7.92-6.552a3.2,3.2,0,0,0-2.466.99,4.931,4.931,0,0,0-1.134,2.862H86.6a4.7,4.7,0,0,0-.954-2.88A3,3,0,0,0,83.25-14.364Zm18,14.652A16.914,16.914,0,0,1,96.768-.27a11.114,11.114,0,0,1-3.51-1.6L94.7-5.616A12.052,12.052,0,0,0,97.866-4.1a11.646,11.646,0,0,0,3.492.54,3.88,3.88,0,0,0,1.962-.414,1.266,1.266,0,0,0,.7-1.134,1.182,1.182,0,0,0-.486-1.008,5.129,5.129,0,0,0-1.818-.648l-2.88-.648A7.6,7.6,0,0,1,95.076-9.2a4.451,4.451,0,0,1-1.206-3.294,4.7,4.7,0,0,1,.954-2.916,6.3,6.3,0,0,1,2.7-1.98,10.358,10.358,0,0,1,3.978-.72,12.093,12.093,0,0,1,3.708.576,11.39,11.39,0,0,1,3.24,1.62l-1.44,3.6a9.724,9.724,0,0,0-5.544-1.944,3.847,3.847,0,0,0-1.98.432,1.355,1.355,0,0,0-.72,1.224,1.062,1.062,0,0,0,.432.9,4.692,4.692,0,0,0,1.512.612l2.988.684A8.006,8.006,0,0,1,107.64-8.55a4.548,4.548,0,0,1,1.242,3.366,4.67,4.67,0,0,1-2.034,4.014A9.456,9.456,0,0,1,101.25.288Zm20.34-4a14.515,14.515,0,0,0,1.728-.108L123.03.144a15.264,15.264,0,0,1-2.088.144q-4.032,0-5.886-1.764T113.2-6.84v-6.768h-3.348v-4.068H113.2V-22.86h5.436v5.184h4.428v4.068h-4.428v6.732Q118.638-3.708,121.59-3.708Zm20.052-4.1h-11.52a4.551,4.551,0,0,0,1.386,3.078,4.869,4.869,0,0,0,3.222.954,8.547,8.547,0,0,0,2.718-.45,8.757,8.757,0,0,0,2.466-1.278l1.44,3.636A9.825,9.825,0,0,1,138.2-.288a12.5,12.5,0,0,1-3.726.576,9.751,9.751,0,0,1-7.038-2.466,8.86,8.86,0,0,1-2.574-6.714,10,10,0,0,1,1.116-4.788,8.181,8.181,0,0,1,3.1-3.258,8.677,8.677,0,0,1,4.5-1.17,7.536,7.536,0,0,1,5.886,2.412,9.412,9.412,0,0,1,2.178,6.552Zm-7.92-6.552a3.2,3.2,0,0,0-2.466.99,4.931,4.931,0,0,0-1.134,2.862h6.948a4.7,4.7,0,0,0-.954-2.88A3,3,0,0,0,133.722-14.364Zm23.832.72-3.06.324a4.733,4.733,0,0,0-3.2,1.278,4.119,4.119,0,0,0-.936,2.826V0h-5.436V-17.676h5.22v2.988q1.332-3.06,5.508-3.348l1.584-.108Z" transform="translate(4258 1255)" fill="#7414dc"/>
  </g>
</svg>
