<svg xmlns="http://www.w3.org/2000/svg" width="487.153" height="158.288" viewBox="0 0 487.153 158.288">
  <g id="Group_28" data-name="Group 28" transform="translate(-1710 -5998)">
    <path id="path14" d="M66.425-478.442a79.834,79.834,0,0,1,11.688,31.5H90.962a91.678,91.678,0,0,0-13.847-38.47c-10.279-15.767-23.669-24.105-38.71-24.113h-.091A37.7,37.7,0,0,0,8.853-495.38a39.674,39.674,0,0,0-7.92,33.548l12.465-2.73a27.339,27.339,0,0,1,5.383-22.805,24.7,24.7,0,0,1,19.537-9.4h.064c13.309.008,22.6,9.969,28.043,18.324Z" transform="translate(2050.999 6537.865)" fill="none"/>
    <path id="path16" d="M38.5-491.566a46.04,46.04,0,0,1,6.775,18.2h7.447a52.869,52.869,0,0,0-8.026-22.23c-5.958-9.11-13.719-13.929-22.437-13.933h-.053A21.88,21.88,0,0,0,5.13-501.353,22.87,22.87,0,0,0,.54-481.968l7.225-1.577a15.76,15.76,0,0,1,3.12-13.178,14.331,14.331,0,0,1,11.324-5.431h.037c7.714,0,13.1,5.76,16.254,10.588" transform="translate(2051 6549.284)" fill="#7414dc"/>
    <path id="path18" d="M362.133-171.507a61.283,61.283,0,0,1-10.243-23.151H338.924a72.254,72.254,0,0,0,10.6,27.308c-4.361,7.3-12.188,14.508-20.466,18.819l-.013-.007-.014.007c-8.277-4.311-16.1-11.516-20.465-18.819a72.254,72.254,0,0,0,10.6-27.308H306.193a61.282,61.282,0,0,1-10.242,23.151l-2.17,3.015,1.549,3.381c5.417,11.82,17.927,23.672,31.129,29.491l2.565,1.135.018-.008.019.008,2.565-1.135c13.2-5.819,25.712-17.671,31.129-29.491l1.549-3.381Z" transform="translate(1795.035 6265.255)" fill="none"/>
    <path id="path20" d="M333.4-181.28a35.352,35.352,0,0,1-5.937-13.378h-7.515a41.671,41.671,0,0,0,6.142,15.78A31.239,31.239,0,0,1,314.227-168l-.008,0-.007,0a31.238,31.238,0,0,1-11.862-10.874,41.675,41.675,0,0,0,6.142-15.78h-7.515a35.353,35.353,0,0,1-5.937,13.378l-1.258,1.742.9,1.954c3.14,6.829,10.391,13.678,18.043,17.041l1.487.655.011,0,.01,0,1.488-.655c7.651-3.363,14.9-10.212,18.042-17.041l.9-1.954L333.4-181.28" transform="translate(1809.857 6290.658)" fill="#7414dc"/>
    <path id="path22" d="M545.983-478.442a79.836,79.836,0,0,0-11.689,31.5H521.445a91.69,91.69,0,0,1,13.847-38.47c10.28-15.767,23.669-24.105,38.71-24.113h.091a37.706,37.706,0,0,1,29.461,14.148,39.674,39.674,0,0,1,7.919,33.548l-12.464-2.73a27.341,27.341,0,0,0-5.384-22.805,24.7,24.7,0,0,0-19.537-9.4h-.065c-13.308.008-22.6,9.969-28.042,18.324Z" transform="translate(1584.747 6537.865)" fill="none"/>
    <path id="path24" d="M535.669-491.566a46.037,46.037,0,0,0-6.775,18.2h-7.447a52.871,52.871,0,0,1,8.026-22.23c5.958-9.11,13.719-13.929,22.437-13.933h.053a21.88,21.88,0,0,1,17.076,8.175,22.876,22.876,0,0,1,4.591,19.385l-7.225-1.577a15.76,15.76,0,0,0-3.12-13.178,14.33,14.33,0,0,0-11.324-5.431h-.038c-7.714,0-13.1,5.76-16.254,10.588" transform="translate(1622.984 6549.284)" fill="#7414dc"/>
    <path id="path26" d="M285.654-608.445H298.5c-1.6-14.8-7.41-27.7-12.557-39.128-5.139-11.4-9.99-22.17-9.921-32.9.107-12.343,7.145-24.925,18.831-33.674,2.048-1.542,7.868-6.009,13.1-10.813,5.232,4.8,11.052,9.271,13.1,10.813,11.687,8.748,18.724,21.331,18.832,33.674.069,10.733-4.782,21.5-9.921,32.9-5.148,11.426-10.955,24.325-12.557,39.128h12.848c1.588-12.224,6.546-23.224,11.349-33.887,5.722-12.7,11.128-24.706,11.046-38.242-.148-16.315-9.1-32.675-23.937-43.784-1.751-1.324-10.857-8.263-16.092-13.9l-4.666-5.032-4.666,5.032c-5.235,5.638-14.341,12.576-16.092,13.9-14.843,11.109-23.789,27.469-23.938,43.784-.082,13.536,5.324,25.537,11.046,38.242,4.8,10.663,9.76,21.662,11.348,33.887Z" transform="translate(1816.121 6741.29)" fill="none"/>
    <path id="path28" d="M276.241-665.37h7.447c-.929-8.554-4.295-16.008-7.278-22.61s-5.791-12.811-5.751-19.014c.062-7.132,4.141-14.4,10.915-19.458,1.186-.891,4.56-3.471,7.593-6.247,3.033,2.776,6.406,5.356,7.593,6.247,6.773,5.056,10.853,12.326,10.914,19.458.041,6.2-2.771,12.427-5.75,19.014s-6.349,14.056-7.278,22.61h7.447c.921-7.064,3.794-13.42,6.578-19.581,3.316-7.341,6.45-14.276,6.4-22.1-.086-9.428-5.272-18.88-13.875-25.3a85.327,85.327,0,0,1-9.327-8.032l-2.705-2.908-2.7,2.908a85.352,85.352,0,0,1-9.326,8.032c-8.6,6.42-13.789,15.872-13.875,25.3-.048,7.821,3.085,14.757,6.4,22.1,2.783,6.161,5.657,12.518,6.578,19.581" transform="translate(1834.91 6741.289)" fill="#7414dc"/>
    <path id="path30" d="M172.042-270.655v12.232H211.83v-12.232H172.042" transform="translate(1932.141 6349.612)" fill="none"/>
    <path id="path32" d="M172.044-270.657v7.069h84.5v-7.069h-84.5" transform="translate(1909.782 6353.081)" fill="#7414dc"/>
    <path id="Path_22" data-name="Path 22" d="M31.7.9A54.916,54.916,0,0,1,16.3-1.25,36.475,36.475,0,0,1,4-7.2L9-18.3a39.149,39.149,0,0,0,22.9,7.1q6.6,0,10.15-2.15A6.646,6.646,0,0,0,45.6-19.3a5.876,5.876,0,0,0-3.25-5.3Q39.1-26.5,30.8-28.3a63.984,63.984,0,0,1-14.85-4.6,19.4,19.4,0,0,1-8.1-6.65A17.615,17.615,0,0,1,5.3-49.3,19.2,19.2,0,0,1,8.85-60.7a23.661,23.661,0,0,1,9.95-7.85A36.073,36.073,0,0,1,33.6-71.4a47.594,47.594,0,0,1,14.45,2.2A29.617,29.617,0,0,1,59.1-63.3l-5,11.1q-9.7-7.1-20.4-7.1-6.1,0-9.6,2.35a7.373,7.373,0,0,0-3.5,6.45,5.8,5.8,0,0,0,1.35,3.95,11.214,11.214,0,0,0,4.5,2.75,68.751,68.751,0,0,0,8.95,2.5q13.6,3,19.55,7.7t5.95,13A18.59,18.59,0,0,1,53.2-4.85Q45.5.9,31.7.9ZM94.3.8Q82.3.8,75.4-6T68.5-24.5a27.108,27.108,0,0,1,3.3-13.55,22.734,22.734,0,0,1,9.3-9.05A29.1,29.1,0,0,1,95-50.3a32.971,32.971,0,0,1,10.4,1.65,22.373,22.373,0,0,1,8.1,4.45l-4,10.3a22.481,22.481,0,0,0-6.35-3.55A19.742,19.742,0,0,0,96.4-38.7q-5.9,0-9.15,3.5T84-24.8q0,6.9,3.25,10.45T96.4-10.8a19.742,19.742,0,0,0,6.75-1.25,22.481,22.481,0,0,0,6.35-3.55l4,10.4a23.853,23.853,0,0,1-8.4,4.4A35.874,35.874,0,0,1,94.3.8Zm49.6,0a28.657,28.657,0,0,1-13.7-3.15,22.09,22.09,0,0,1-9.1-8.9,27.426,27.426,0,0,1-3.2-13.55,27.426,27.426,0,0,1,3.2-13.55,21.774,21.774,0,0,1,9.1-8.85,29.036,29.036,0,0,1,13.7-3.1,29.036,29.036,0,0,1,13.7,3.1,21.774,21.774,0,0,1,9.1,8.85,27.426,27.426,0,0,1,3.2,13.55,27.426,27.426,0,0,1-3.2,13.55,22.09,22.09,0,0,1-9.1,8.9A28.657,28.657,0,0,1,143.9.8Zm0-11.5q11,0,11-14.1,0-7.1-2.85-10.6t-8.15-3.5q-11,0-11,14.1T143.9-10.7Zm82.5-38.4V0H211.7V-7a15.537,15.537,0,0,1-6.05,5.8,17.672,17.672,0,0,1-8.45,2q-9.3,0-13.85-5.15T178.8-19.9V-49.1h15.1v29.5q0,4.4,1.85,6.5T201.4-11a9.25,9.25,0,0,0,7.15-3,11.234,11.234,0,0,0,2.75-7.9V-49.1Zm38.8,38.8a40.319,40.319,0,0,0,4.8-.3l-.8,11a42.4,42.4,0,0,1-5.8.4q-11.2,0-16.35-4.9T241.9-19V-37.8h-9.3V-49.1h9.3V-63.5H257v14.4h12.3v11.3H257v18.7Q257-10.3,265.2-10.3ZM295.6.8A46.985,46.985,0,0,1,283.15-.75,30.871,30.871,0,0,1,273.4-5.2l4-10.4a33.476,33.476,0,0,0,8.8,4.2,32.349,32.349,0,0,0,9.7,1.5,10.777,10.777,0,0,0,5.45-1.15,3.518,3.518,0,0,0,1.95-3.15,3.284,3.284,0,0,0-1.35-2.8,14.247,14.247,0,0,0-5.05-1.8l-8-1.8q-7.1-1.6-10.45-4.95T275.1-34.7a13.051,13.051,0,0,1,2.65-8.1,17.5,17.5,0,0,1,7.5-5.5,28.773,28.773,0,0,1,11.05-2,33.591,33.591,0,0,1,10.3,1.6,31.638,31.638,0,0,1,9,4.5l-4,10q-7.8-5.4-15.4-5.4a10.687,10.687,0,0,0-5.5,1.2,3.765,3.765,0,0,0-2,3.4,2.949,2.949,0,0,0,1.2,2.5,13.035,13.035,0,0,0,4.2,1.7l8.3,1.9q7.5,1.7,10.95,5.15t3.45,9.35a12.973,12.973,0,0,1-5.65,11.15Q305.5.8,295.6.8Z" transform="translate(1706 6107)" fill="#7414dc"/>
    <path id="Path_23" data-name="Path 23" d="M20.34-4.5V0H3.78V-4.5H9.252V-19.152l-4.32,2.52L2.808-20.664l8.064-4.716h4V-4.5ZM30.492.288A16.914,16.914,0,0,1,26.01-.27a11.114,11.114,0,0,1-3.51-1.6l1.44-3.744A12.052,12.052,0,0,0,27.108-4.1a11.646,11.646,0,0,0,3.492.54,3.88,3.88,0,0,0,1.962-.414,1.266,1.266,0,0,0,.7-1.134,1.182,1.182,0,0,0-.486-1.008,5.129,5.129,0,0,0-1.818-.648l-2.88-.648A7.6,7.6,0,0,1,24.318-9.2a4.451,4.451,0,0,1-1.206-3.294,4.7,4.7,0,0,1,.954-2.916,6.3,6.3,0,0,1,2.7-1.98,10.358,10.358,0,0,1,3.978-.72,12.093,12.093,0,0,1,3.708.576,11.39,11.39,0,0,1,3.24,1.62l-1.44,3.6a9.724,9.724,0,0,0-5.544-1.944,3.847,3.847,0,0,0-1.98.432,1.355,1.355,0,0,0-.72,1.224,1.062,1.062,0,0,0,.432.9,4.692,4.692,0,0,0,1.512.612l2.988.684A8.006,8.006,0,0,1,36.882-8.55a4.548,4.548,0,0,1,1.242,3.366A4.67,4.67,0,0,1,36.09-1.17,9.456,9.456,0,0,1,30.492.288Zm20.34-4a14.515,14.515,0,0,0,1.728-.108L52.272.144a15.264,15.264,0,0,1-2.088.144q-4.032,0-5.886-1.764T42.444-6.84v-6.768H39.1v-4.068h3.348V-22.86H47.88v5.184h4.428v4.068H47.88v6.732Q47.88-3.708,50.832-3.708ZM87.48-25.38V0H83.3L70.668-16.164V0h-5.22V-25.38h4.14L82.224-9.288V-25.38ZM108-7.812H96.48a4.551,4.551,0,0,0,1.386,3.078,4.869,4.869,0,0,0,3.222.954,8.547,8.547,0,0,0,2.718-.45,8.757,8.757,0,0,0,2.466-1.278l1.44,3.636a9.825,9.825,0,0,1-3.15,1.584,12.5,12.5,0,0,1-3.726.576A9.751,9.751,0,0,1,93.8-2.178a8.86,8.86,0,0,1-2.574-6.714A10,10,0,0,1,92.34-13.68a8.181,8.181,0,0,1,3.1-3.258,8.677,8.677,0,0,1,4.5-1.17,7.536,7.536,0,0,1,5.886,2.412A9.412,9.412,0,0,1,108-9.144Zm-7.92-6.552a3.2,3.2,0,0,0-2.466.99,4.931,4.931,0,0,0-1.134,2.862h6.948a4.7,4.7,0,0,0-.954-2.88A3,3,0,0,0,100.08-14.364Zm39.888-3.312L132.8,0H128.2l-3.888-9.972L120.528,0h-4.572l-7.2-17.676H114.3l4.176,11.2,4.176-11.2h3.672l4.212,11.3,4.14-11.3Zm12.96-.432A7.445,7.445,0,0,1,157-16.992a7.479,7.479,0,0,1,2.754,3.186A11.02,11.02,0,0,1,160.74-9a11.259,11.259,0,0,1-.99,4.842,7.762,7.762,0,0,1-2.772,3.276,7.214,7.214,0,0,1-4.05,1.17,7.022,7.022,0,0,1-3.312-.774,5.509,5.509,0,0,1-2.268-2.142V0h-5.364V-25.38h5.436V-15.3a5.373,5.373,0,0,1,2.25-2.07A7.111,7.111,0,0,1,152.928-18.108ZM151.344-3.852A3.514,3.514,0,0,0,154.3-5.2,6.084,6.084,0,0,0,155.34-9a5.7,5.7,0,0,0-1.044-3.69,3.6,3.6,0,0,0-2.952-1.278,3.553,3.553,0,0,0-2.952,1.314,5.86,5.86,0,0,0-1.044,3.726,5.925,5.925,0,0,0,1.044,3.762A3.553,3.553,0,0,0,151.344-3.852Zm21.2,4.14a10.317,10.317,0,0,1-4.932-1.134,7.952,7.952,0,0,1-3.276-3.2,9.873,9.873,0,0,1-1.152-4.878,9.873,9.873,0,0,1,1.152-4.878,7.839,7.839,0,0,1,3.276-3.186,10.453,10.453,0,0,1,4.932-1.116,10.453,10.453,0,0,1,4.932,1.116,7.839,7.839,0,0,1,3.276,3.186,9.874,9.874,0,0,1,1.152,4.878,9.874,9.874,0,0,1-1.152,4.878,7.952,7.952,0,0,1-3.276,3.2A10.317,10.317,0,0,1,172.548.288Zm0-4.14q3.96,0,3.96-5.076a5.962,5.962,0,0,0-1.026-3.816A3.567,3.567,0,0,0,172.548-14q-3.96,0-3.96,5.076T172.548-3.852ZM185.22-25.38h5.436V0H185.22Zm27.5,0V0h-5.4V-2.628a5.536,5.536,0,0,1-2.25,2.142,6.915,6.915,0,0,1-3.294.774,7.214,7.214,0,0,1-4.05-1.17,7.762,7.762,0,0,1-2.772-3.276A11.259,11.259,0,0,1,193.968-9a11.02,11.02,0,0,1,.99-4.806,7.478,7.478,0,0,1,2.754-3.186,7.445,7.445,0,0,1,4.068-1.116,6.971,6.971,0,0,1,3.258.756,5.418,5.418,0,0,1,2.25,2.124V-25.38Zm-9.36,21.528A3.5,3.5,0,0,0,206.3-5.166a6,6,0,0,0,1.026-3.762,5.92,5.92,0,0,0-1.026-3.744,3.523,3.523,0,0,0-2.934-1.3,3.6,3.6,0,0,0-2.952,1.278A5.7,5.7,0,0,0,199.368-9a6.084,6.084,0,0,0,1.044,3.8A3.515,3.515,0,0,0,203.364-3.852ZM251.64-25.38,240.228,0h-4.5L224.28-25.38h5.832l7.92,18.4,7.92-18.4ZM266.9-7.812h-11.52a4.551,4.551,0,0,0,1.386,3.078,4.869,4.869,0,0,0,3.222.954,8.547,8.547,0,0,0,2.718-.45,8.756,8.756,0,0,0,2.466-1.278l1.44,3.636a9.825,9.825,0,0,1-3.15,1.584,12.5,12.5,0,0,1-3.726.576A9.751,9.751,0,0,1,252.7-2.178a8.86,8.86,0,0,1-2.574-6.714,10,10,0,0,1,1.116-4.788,8.181,8.181,0,0,1,3.1-3.258,8.677,8.677,0,0,1,4.5-1.17,7.536,7.536,0,0,1,5.886,2.412A9.412,9.412,0,0,1,266.9-9.144Zm-7.92-6.552a3.2,3.2,0,0,0-2.466.99,4.931,4.931,0,0,0-1.134,2.862h6.948a4.7,4.7,0,0,0-.954-2.88A3,3,0,0,0,258.984-14.364Zm23.832.72-3.06.324a4.733,4.733,0,0,0-3.2,1.278,4.119,4.119,0,0,0-.936,2.826V0H270.18V-17.676h5.22v2.988q1.332-3.06,5.508-3.348l1.584-.108ZM302.148-25.38V0h-5.4V-2.628A5.535,5.535,0,0,1,294.5-.486,6.915,6.915,0,0,1,291.2.288a7.214,7.214,0,0,1-4.05-1.17,7.762,7.762,0,0,1-2.772-3.276A11.259,11.259,0,0,1,283.392-9a11.02,11.02,0,0,1,.99-4.806,7.479,7.479,0,0,1,2.754-3.186,7.446,7.446,0,0,1,4.068-1.116,6.971,6.971,0,0,1,3.258.756,5.418,5.418,0,0,1,2.25,2.124V-25.38Zm-9.36,21.528a3.5,3.5,0,0,0,2.934-1.314,6,6,0,0,0,1.026-3.762,5.921,5.921,0,0,0-1.026-3.744,3.523,3.523,0,0,0-2.934-1.3,3.6,3.6,0,0,0-2.952,1.278A5.7,5.7,0,0,0,288.792-9a6.084,6.084,0,0,0,1.044,3.8A3.515,3.515,0,0,0,292.788-3.852ZM314.82.288a10.316,10.316,0,0,1-4.932-1.134,7.952,7.952,0,0,1-3.276-3.2,9.873,9.873,0,0,1-1.152-4.878,9.873,9.873,0,0,1,1.152-4.878,7.838,7.838,0,0,1,3.276-3.186,10.453,10.453,0,0,1,4.932-1.116,10.453,10.453,0,0,1,4.932,1.116,7.838,7.838,0,0,1,3.276,3.186,9.873,9.873,0,0,1,1.152,4.878,9.873,9.873,0,0,1-1.152,4.878,7.952,7.952,0,0,1-3.276,3.2A10.316,10.316,0,0,1,314.82.288Zm0-4.14q3.96,0,3.96-5.076a5.962,5.962,0,0,0-1.026-3.816A3.567,3.567,0,0,0,314.82-14q-3.96,0-3.96,5.076T314.82-3.852Zm23.76-14.256a5.8,5.8,0,0,1,4.716,1.854q1.548,1.854,1.548,5.6V0h-5.436V-10.4a4.185,4.185,0,0,0-.666-2.628,2.5,2.5,0,0,0-2.07-.828,3.574,3.574,0,0,0-2.718,1.08,4.009,4.009,0,0,0-1.026,2.88V0h-5.436V-17.676h5.292v2.52a6.194,6.194,0,0,1,2.43-2.2A7.349,7.349,0,0,1,338.58-18.108Z" transform="translate(1708 6156)" fill="#7414dc"/>
  </g>
</svg>
