<svg xmlns="http://www.w3.org/2000/svg" width="487.569" height="158.324" viewBox="0 0 487.569 158.324">
  <g id="Group_2" data-name="Group 2" transform="translate(-1709.584 -1547)">
    <g id="Scouts_SVG" data-name="Scouts SVG" transform="translate(2051 1547)">
      <path id="path14" d="M66.425-478.442a79.834,79.834,0,0,1,11.688,31.5H90.962a91.678,91.678,0,0,0-13.847-38.47c-10.279-15.767-23.669-24.105-38.71-24.113h-.091A37.7,37.7,0,0,0,8.853-495.38a39.674,39.674,0,0,0-7.92,33.548l12.465-2.73a27.339,27.339,0,0,1,5.383-22.805,24.7,24.7,0,0,1,19.537-9.4h.064c13.309.008,22.6,9.969,28.043,18.324Z" transform="translate(-0.001 539.865)" fill="none"/>
      <path id="path16" d="M38.5-491.566a46.04,46.04,0,0,1,6.775,18.2h7.447a52.869,52.869,0,0,0-8.026-22.23c-5.958-9.11-13.719-13.929-22.437-13.933h-.053A21.88,21.88,0,0,0,5.13-501.353,22.87,22.87,0,0,0,.54-481.968l7.225-1.577a15.76,15.76,0,0,1,3.12-13.178,14.331,14.331,0,0,1,11.324-5.431h.037c7.714,0,13.1,5.76,16.254,10.588" transform="translate(0 551.284)" fill="#7414dc"/>
      <path id="path18" d="M362.133-171.507a61.283,61.283,0,0,1-10.243-23.151H338.924a72.254,72.254,0,0,0,10.6,27.308c-4.361,7.3-12.188,14.508-20.466,18.819l-.013-.007-.014.007c-8.277-4.311-16.1-11.516-20.465-18.819a72.254,72.254,0,0,0,10.6-27.308H306.193a61.282,61.282,0,0,1-10.242,23.151l-2.17,3.015,1.549,3.381c5.417,11.82,17.927,23.672,31.129,29.491l2.565,1.135.018-.008.019.008,2.565-1.135c13.2-5.819,25.712-17.671,31.129-29.491l1.549-3.381Z" transform="translate(-255.965 267.255)" fill="none"/>
      <path id="path20" d="M333.4-181.28a35.352,35.352,0,0,1-5.937-13.378h-7.515a41.671,41.671,0,0,0,6.142,15.78A31.239,31.239,0,0,1,314.227-168l-.008,0-.007,0a31.238,31.238,0,0,1-11.862-10.874,41.675,41.675,0,0,0,6.142-15.78h-7.515a35.353,35.353,0,0,1-5.937,13.378l-1.258,1.742.9,1.954c3.14,6.829,10.391,13.678,18.043,17.041l1.487.655.011,0,.01,0,1.488-.655c7.651-3.363,14.9-10.212,18.042-17.041l.9-1.954L333.4-181.28" transform="translate(-241.143 292.658)" fill="#7414dc"/>
      <path id="path22" d="M545.983-478.442a79.836,79.836,0,0,0-11.689,31.5H521.445a91.69,91.69,0,0,1,13.847-38.47c10.28-15.767,23.669-24.105,38.71-24.113h.091a37.706,37.706,0,0,1,29.461,14.148,39.674,39.674,0,0,1,7.919,33.548l-12.464-2.73a27.341,27.341,0,0,0-5.384-22.805,24.7,24.7,0,0,0-19.537-9.4h-.065c-13.308.008-22.6,9.969-28.042,18.324Z" transform="translate(-466.253 539.865)" fill="none"/>
      <path id="path24" d="M535.669-491.566a46.037,46.037,0,0,0-6.775,18.2h-7.447a52.871,52.871,0,0,1,8.026-22.23c5.958-9.11,13.719-13.929,22.437-13.933h.053a21.88,21.88,0,0,1,17.076,8.175,22.876,22.876,0,0,1,4.591,19.385l-7.225-1.577a15.76,15.76,0,0,0-3.12-13.178,14.33,14.33,0,0,0-11.324-5.431h-.038c-7.714,0-13.1,5.76-16.254,10.588" transform="translate(-428.016 551.284)" fill="#7414dc"/>
      <path id="path26" d="M285.654-608.445H298.5c-1.6-14.8-7.41-27.7-12.557-39.128-5.139-11.4-9.99-22.17-9.921-32.9.107-12.343,7.145-24.925,18.831-33.674,2.048-1.542,7.868-6.009,13.1-10.813,5.232,4.8,11.052,9.271,13.1,10.813,11.687,8.748,18.724,21.331,18.832,33.674.069,10.733-4.782,21.5-9.921,32.9-5.148,11.426-10.955,24.325-12.557,39.128h12.848c1.588-12.224,6.546-23.224,11.349-33.887,5.722-12.7,11.128-24.706,11.046-38.242-.148-16.315-9.1-32.675-23.937-43.784-1.751-1.324-10.857-8.263-16.092-13.9l-4.666-5.032-4.666,5.032c-5.235,5.638-14.341,12.576-16.092,13.9-14.843,11.109-23.789,27.469-23.938,43.784-.082,13.536,5.324,25.537,11.046,38.242,4.8,10.663,9.76,21.662,11.348,33.887Z" transform="translate(-234.879 743.29)" fill="none"/>
      <path id="path28" d="M276.241-665.37h7.447c-.929-8.554-4.295-16.008-7.278-22.61s-5.791-12.811-5.751-19.014c.062-7.132,4.141-14.4,10.915-19.458,1.186-.891,4.56-3.471,7.593-6.247,3.033,2.776,6.406,5.356,7.593,6.247,6.773,5.056,10.853,12.326,10.914,19.458.041,6.2-2.771,12.427-5.75,19.014s-6.349,14.056-7.278,22.61h7.447c.921-7.064,3.794-13.42,6.578-19.581,3.316-7.341,6.45-14.276,6.4-22.1-.086-9.428-5.272-18.88-13.875-25.3a85.327,85.327,0,0,1-9.327-8.032l-2.705-2.908-2.7,2.908a85.352,85.352,0,0,1-9.326,8.032c-8.6,6.42-13.789,15.872-13.875,25.3-.048,7.821,3.085,14.757,6.4,22.1,2.783,6.161,5.657,12.518,6.578,19.581" transform="translate(-216.09 743.289)" fill="#7414dc"/>
      <path id="path30" d="M172.042-270.655v12.232H211.83v-12.232H172.042" transform="translate(-118.859 351.612)" fill="none"/>
      <path id="path32" d="M172.044-270.657v7.069h84.5v-7.069h-84.5" transform="translate(-141.218 355.081)" fill="#7414dc"/>
    </g>
    <path id="Path_8" data-name="Path 8" d="M31.7.9A54.916,54.916,0,0,1,16.3-1.25,36.475,36.475,0,0,1,4-7.2L9-18.3a39.149,39.149,0,0,0,22.9,7.1q6.6,0,10.15-2.15A6.646,6.646,0,0,0,45.6-19.3a5.876,5.876,0,0,0-3.25-5.3Q39.1-26.5,30.8-28.3a63.984,63.984,0,0,1-14.85-4.6,19.4,19.4,0,0,1-8.1-6.65A17.615,17.615,0,0,1,5.3-49.3,19.2,19.2,0,0,1,8.85-60.7a23.661,23.661,0,0,1,9.95-7.85A36.073,36.073,0,0,1,33.6-71.4a47.594,47.594,0,0,1,14.45,2.2A29.617,29.617,0,0,1,59.1-63.3l-5,11.1q-9.7-7.1-20.4-7.1-6.1,0-9.6,2.35a7.373,7.373,0,0,0-3.5,6.45,5.8,5.8,0,0,0,1.35,3.95,11.214,11.214,0,0,0,4.5,2.75,68.751,68.751,0,0,0,8.95,2.5q13.6,3,19.55,7.7t5.95,13A18.59,18.59,0,0,1,53.2-4.85Q45.5.9,31.7.9ZM94.3.8Q82.3.8,75.4-6T68.5-24.5a27.108,27.108,0,0,1,3.3-13.55,22.734,22.734,0,0,1,9.3-9.05A29.1,29.1,0,0,1,95-50.3a32.971,32.971,0,0,1,10.4,1.65,22.373,22.373,0,0,1,8.1,4.45l-4,10.3a22.481,22.481,0,0,0-6.35-3.55A19.742,19.742,0,0,0,96.4-38.7q-5.9,0-9.15,3.5T84-24.8q0,6.9,3.25,10.45T96.4-10.8a19.742,19.742,0,0,0,6.75-1.25,22.481,22.481,0,0,0,6.35-3.55l4,10.4a23.853,23.853,0,0,1-8.4,4.4A35.874,35.874,0,0,1,94.3.8Zm49.6,0a28.657,28.657,0,0,1-13.7-3.15,22.09,22.09,0,0,1-9.1-8.9,27.426,27.426,0,0,1-3.2-13.55,27.426,27.426,0,0,1,3.2-13.55,21.774,21.774,0,0,1,9.1-8.85,29.036,29.036,0,0,1,13.7-3.1,29.036,29.036,0,0,1,13.7,3.1,21.774,21.774,0,0,1,9.1,8.85,27.426,27.426,0,0,1,3.2,13.55,27.426,27.426,0,0,1-3.2,13.55,22.09,22.09,0,0,1-9.1,8.9A28.657,28.657,0,0,1,143.9.8Zm0-11.5q11,0,11-14.1,0-7.1-2.85-10.6t-8.15-3.5q-11,0-11,14.1T143.9-10.7Zm82.5-38.4V0H211.7V-7a15.537,15.537,0,0,1-6.05,5.8,17.672,17.672,0,0,1-8.45,2q-9.3,0-13.85-5.15T178.8-19.9V-49.1h15.1v29.5q0,4.4,1.85,6.5T201.4-11a9.25,9.25,0,0,0,7.15-3,11.234,11.234,0,0,0,2.75-7.9V-49.1Zm38.8,38.8a40.319,40.319,0,0,0,4.8-.3l-.8,11a42.4,42.4,0,0,1-5.8.4q-11.2,0-16.35-4.9T241.9-19V-37.8h-9.3V-49.1h9.3V-63.5H257v14.4h12.3v11.3H257v18.7Q257-10.3,265.2-10.3ZM295.6.8A46.985,46.985,0,0,1,283.15-.75,30.871,30.871,0,0,1,273.4-5.2l4-10.4a33.476,33.476,0,0,0,8.8,4.2,32.349,32.349,0,0,0,9.7,1.5,10.777,10.777,0,0,0,5.45-1.15,3.518,3.518,0,0,0,1.95-3.15,3.284,3.284,0,0,0-1.35-2.8,14.247,14.247,0,0,0-5.05-1.8l-8-1.8q-7.1-1.6-10.45-4.95T275.1-34.7a13.051,13.051,0,0,1,2.65-8.1,17.5,17.5,0,0,1,7.5-5.5,28.773,28.773,0,0,1,11.05-2,33.591,33.591,0,0,1,10.3,1.6,31.638,31.638,0,0,1,9,4.5l-4,10q-7.8-5.4-15.4-5.4a10.687,10.687,0,0,0-5.5,1.2,3.765,3.765,0,0,0-2,3.4,2.949,2.949,0,0,0,1.2,2.5,13.035,13.035,0,0,0,4.2,1.7l8.3,1.9q7.5,1.7,10.95,5.15t3.45,9.35a12.973,12.973,0,0,1-5.65,11.15Q305.5.8,295.6.8Z" transform="translate(1706 1656)" fill="#7414dc"/>
    <path id="Path_9" data-name="Path 9" d="M19.836-4.5V0H2.376V-4.14l8.46-8.964Q13.5-15.912,13.5-18.288q0-3.024-3.456-3.024a9.66,9.66,0,0,0-3.312.63,14.093,14.093,0,0,0-3.384,1.818l-1.764-4a11.262,11.262,0,0,1,3.888-2.07,15.6,15.6,0,0,1,4.86-.774A9.748,9.748,0,0,1,16.65-23.8a6.238,6.238,0,0,1,2.358,5.112,9.113,9.113,0,0,1-.918,4.068,18,18,0,0,1-3.078,4.176L9.36-4.5ZM34.812-18.108a5.8,5.8,0,0,1,4.716,1.854q1.548,1.854,1.548,5.6V0H35.64V-10.4a4.185,4.185,0,0,0-.666-2.628,2.5,2.5,0,0,0-2.07-.828,3.574,3.574,0,0,0-2.718,1.08A4.009,4.009,0,0,0,29.16-9.9V0H23.724V-17.676h5.292v2.52a6.194,6.194,0,0,1,2.43-2.2A7.349,7.349,0,0,1,34.812-18.108ZM63.036-25.38V0h-5.4V-2.628a5.536,5.536,0,0,1-2.25,2.142,6.915,6.915,0,0,1-3.294.774,7.214,7.214,0,0,1-4.05-1.17A7.762,7.762,0,0,1,45.27-4.158,11.259,11.259,0,0,1,44.28-9a11.02,11.02,0,0,1,.99-4.806,7.479,7.479,0,0,1,2.754-3.186,7.445,7.445,0,0,1,4.068-1.116,6.971,6.971,0,0,1,3.258.756,5.418,5.418,0,0,1,2.25,2.124V-25.38ZM53.676-3.852A3.5,3.5,0,0,0,56.61-5.166a6,6,0,0,0,1.026-3.762,5.921,5.921,0,0,0-1.026-3.744,3.523,3.523,0,0,0-2.934-1.3,3.6,3.6,0,0,0-2.952,1.278A5.7,5.7,0,0,0,49.68-9a6.084,6.084,0,0,0,1.044,3.8A3.515,3.515,0,0,0,53.676-3.852ZM87.8-16.488a7.6,7.6,0,0,1,3.978,1.044,7.29,7.29,0,0,1,2.736,2.916,8.947,8.947,0,0,1,.99,4.248,8.832,8.832,0,0,1-1.116,4.446,7.907,7.907,0,0,1-3.1,3.06,9.048,9.048,0,0,1-4.464,1.1A9.334,9.334,0,0,1,79.2-2.952q-2.7-3.276-2.7-9.36a18.07,18.07,0,0,1,1.3-7.182A10.205,10.205,0,0,1,81.5-24.1a10.105,10.105,0,0,1,5.724-1.6,14.145,14.145,0,0,1,4.536.738,10.744,10.744,0,0,1,3.744,2.106l-1.8,4a10.709,10.709,0,0,0-6.264-2.448,4.413,4.413,0,0,0-3.834,2A10.92,10.92,0,0,0,82.08-13.5a5.95,5.95,0,0,1,2.34-2.178A7.051,7.051,0,0,1,87.8-16.488Zm-1.3,12.456a3.516,3.516,0,0,0,2.718-1.116A4.19,4.19,0,0,0,90.252-8.1a4.139,4.139,0,0,0-1.026-2.916,3.516,3.516,0,0,0-2.718-1.116,3.573,3.573,0,0,0-2.736,1.116A4.1,4.1,0,0,0,82.728-8.1a4.161,4.161,0,0,0,1.044,2.934A3.544,3.544,0,0,0,86.508-4.032ZM107.568.324a8.159,8.159,0,0,1-7.038-3.348Q98.1-6.372,98.1-12.708q0-6.264,2.448-9.594a8.185,8.185,0,0,1,7.02-3.33,8.185,8.185,0,0,1,7.02,3.33q2.448,3.33,2.448,9.594,0,6.336-2.43,9.684A8.159,8.159,0,0,1,107.568.324Zm0-4.284a3.173,3.173,0,0,0,3.042-2.088,17.107,17.107,0,0,0,.954-6.66,16.7,16.7,0,0,0-.954-6.588,3.173,3.173,0,0,0-3.042-2.052,3.173,3.173,0,0,0-3.042,2.052,16.7,16.7,0,0,0-.954,6.588,17.107,17.107,0,0,0,.954,6.66A3.173,3.173,0,0,0,107.568-3.96Zm22.68.252a14.515,14.515,0,0,0,1.728-.108l-.288,3.96A15.264,15.264,0,0,1,129.6.288q-4.032,0-5.886-1.764T121.86-6.84v-6.768h-3.348v-4.068h3.348V-22.86H127.3v5.184h4.428v4.068H127.3v6.732Q127.3-3.708,130.248-3.708Zm15.228-14.4a5.8,5.8,0,0,1,4.716,1.854q1.548,1.854,1.548,5.6V0H146.3V-10.4a4.185,4.185,0,0,0-.666-2.628,2.5,2.5,0,0,0-2.07-.828,3.574,3.574,0,0,0-2.718,1.08,4.009,4.009,0,0,0-1.026,2.88V0h-5.436V-25.38h5.436v10.044a6.031,6.031,0,0,1,2.394-2.07A7.413,7.413,0,0,1,145.476-18.108Zm20.808-7.272H171.9V-4.572h11.34V0H166.284ZM201.852-7.812h-11.52a4.551,4.551,0,0,0,1.386,3.078,4.869,4.869,0,0,0,3.222.954,8.547,8.547,0,0,0,2.718-.45,8.757,8.757,0,0,0,2.466-1.278l1.44,3.636a9.825,9.825,0,0,1-3.15,1.584,12.5,12.5,0,0,1-3.726.576,9.751,9.751,0,0,1-7.038-2.466,8.86,8.86,0,0,1-2.574-6.714,10,10,0,0,1,1.116-4.788,8.181,8.181,0,0,1,3.1-3.258,8.677,8.677,0,0,1,4.5-1.17,7.536,7.536,0,0,1,5.886,2.412,9.412,9.412,0,0,1,2.178,6.552Zm-7.92-6.552a3.2,3.2,0,0,0-2.466.99,4.931,4.931,0,0,0-1.134,2.862h6.948a4.7,4.7,0,0,0-.954-2.88A3,3,0,0,0,193.932-14.364Zm11.2-3.312h5.436V0h-5.436Zm5.652-8.5V-21.1h-5.832v-5.076ZM223.164.288a9.272,9.272,0,0,1-6.8-2.448,8.926,8.926,0,0,1-2.484-6.66,9.759,9.759,0,0,1,1.188-4.878,8.184,8.184,0,0,1,3.348-3.258,10.475,10.475,0,0,1,5-1.152,11.87,11.87,0,0,1,3.744.594,8.054,8.054,0,0,1,2.916,1.6l-1.44,3.708a8.093,8.093,0,0,0-2.286-1.278,7.107,7.107,0,0,0-2.43-.45,4.273,4.273,0,0,0-3.294,1.26,5.324,5.324,0,0,0-1.17,3.744,5.394,5.394,0,0,0,1.17,3.762,4.241,4.241,0,0,0,3.294,1.278,7.107,7.107,0,0,0,2.43-.45,8.093,8.093,0,0,0,2.286-1.278l1.44,3.744a8.587,8.587,0,0,1-3.024,1.584A12.915,12.915,0,0,1,223.164.288Zm25.272-8.1h-11.52A4.551,4.551,0,0,0,238.3-4.734a4.869,4.869,0,0,0,3.222.954,8.547,8.547,0,0,0,2.718-.45,8.757,8.757,0,0,0,2.466-1.278l1.44,3.636A9.825,9.825,0,0,1,245-.288a12.5,12.5,0,0,1-3.726.576,9.751,9.751,0,0,1-7.038-2.466,8.86,8.86,0,0,1-2.574-6.714,10,10,0,0,1,1.116-4.788,8.181,8.181,0,0,1,3.1-3.258,8.677,8.677,0,0,1,4.5-1.17,7.536,7.536,0,0,1,5.886,2.412,9.412,9.412,0,0,1,2.178,6.552Zm-7.92-6.552a3.2,3.2,0,0,0-2.466.99,4.931,4.931,0,0,0-1.134,2.862h6.948a4.7,4.7,0,0,0-.954-2.88A3,3,0,0,0,240.516-14.364Zm18,14.652a16.915,16.915,0,0,1-4.482-.558,11.114,11.114,0,0,1-3.51-1.6l1.44-3.744A12.052,12.052,0,0,0,255.132-4.1a11.646,11.646,0,0,0,3.492.54,3.88,3.88,0,0,0,1.962-.414,1.266,1.266,0,0,0,.7-1.134A1.182,1.182,0,0,0,260.8-6.12a5.129,5.129,0,0,0-1.818-.648l-2.88-.648A7.6,7.6,0,0,1,252.342-9.2a4.451,4.451,0,0,1-1.206-3.294,4.7,4.7,0,0,1,.954-2.916,6.3,6.3,0,0,1,2.7-1.98,10.358,10.358,0,0,1,3.978-.72,12.093,12.093,0,0,1,3.708.576,11.39,11.39,0,0,1,3.24,1.62l-1.44,3.6a9.724,9.724,0,0,0-5.544-1.944,3.847,3.847,0,0,0-1.98.432,1.355,1.355,0,0,0-.72,1.224,1.062,1.062,0,0,0,.432.9,4.692,4.692,0,0,0,1.512.612l2.988.684a8.006,8.006,0,0,1,3.942,1.854,4.548,4.548,0,0,1,1.242,3.366,4.67,4.67,0,0,1-2.034,4.014A9.456,9.456,0,0,1,258.516.288Zm20.34-4a14.515,14.515,0,0,0,1.728-.108L280.3.144a15.264,15.264,0,0,1-2.088.144q-4.032,0-5.886-1.764T270.468-6.84v-6.768H267.12v-4.068h3.348V-22.86H275.9v5.184h4.428v4.068H275.9v6.732Q275.9-3.708,278.856-3.708Zm20.052-4.1h-11.52a4.551,4.551,0,0,0,1.386,3.078A4.869,4.869,0,0,0,292-3.78a8.547,8.547,0,0,0,2.718-.45,8.757,8.757,0,0,0,2.466-1.278l1.44,3.636a9.825,9.825,0,0,1-3.15,1.584,12.5,12.5,0,0,1-3.726.576,9.751,9.751,0,0,1-7.038-2.466,8.86,8.86,0,0,1-2.574-6.714,10,10,0,0,1,1.116-4.788,8.181,8.181,0,0,1,3.1-3.258,8.677,8.677,0,0,1,4.5-1.17A7.536,7.536,0,0,1,296.73-15.7a9.412,9.412,0,0,1,2.178,6.552Zm-7.92-6.552a3.2,3.2,0,0,0-2.466.99,4.931,4.931,0,0,0-1.134,2.862h6.948a4.7,4.7,0,0,0-.954-2.88A3,3,0,0,0,290.988-14.364Zm23.832.72-3.06.324a4.733,4.733,0,0,0-3.2,1.278,4.119,4.119,0,0,0-.936,2.826V0h-5.436V-17.676h5.22v2.988q1.332-3.06,5.508-3.348l1.584-.108Z" transform="translate(1708 1705)" fill="#7414dc"/>
  </g>
</svg>
