<svg xmlns="http://www.w3.org/2000/svg" width="143" height="122.999" viewBox="0 0 143 122.999">
  <g id="Union_11" data-name="Union 11" fill="#00a794">
    <path d="M 136.9998016357422 122.4994125366211 L 6.000308036804199 122.4994125366211 C 2.967435121536255 122.4994125366211 0.4999988675117493 120.0323715209961 0.4999988675117493 116.9999923706055 L 0.4999988675117493 17.00010299682617 C 0.4999988675117493 13.96722984313965 2.967435121536255 11.49981117248535 6.000308036804199 11.49981117248535 L 19.99979972839355 11.49981117248535 L 20.49979972839355 11.49981117248535 L 20.49979972839355 10.99981117248535 L 20.49979972839355 1.99981153011322 C 20.49979972839355 1.172811508178711 21.17259979248047 0.4999933540821075 21.99959945678711 0.4999933540821075 L 47.99970626831055 0.4999933540821075 C 48.82670974731445 0.4999933540821075 49.49950790405273 1.172811508178711 49.49950790405273 1.99981153011322 L 49.49950790405273 10.99981117248535 L 49.49950790405273 11.49981117248535 L 49.99950790405273 11.49981117248535 L 92.99971008300781 11.49981117248535 L 93.49971008300781 11.49981117248535 L 93.49971008300781 10.99981117248535 L 93.49971008300781 1.99981153011322 C 93.49971008300781 1.172811508178711 94.17250823974609 0.4999933540821075 94.99951171875 0.4999933540821075 L 120.9995956420898 0.4999933540821075 C 121.8265991210938 0.4999933540821075 122.499397277832 1.172811508178711 122.499397277832 1.99981153011322 L 122.499397277832 10.99981117248535 L 122.499397277832 11.49981117248535 L 122.999397277832 11.49981117248535 L 136.9998016357422 11.49981117248535 C 140.0326690673828 11.49981117248535 142.5001068115234 13.96722984313965 142.5001068115234 17.00010299682617 L 142.5001068115234 116.9999923706055 C 142.5001068115234 120.0323715209961 140.0326690673828 122.4994125366211 136.9998016357422 122.4994125366211 Z M 10.49979877471924 35.49999237060547 L 10.49979877471924 35.99999237060547 L 10.49979877471924 111.9996109008789 L 10.49979877471924 112.4996109008789 L 10.99979877471924 112.4996109008789 L 132.0003051757813 112.4996109008789 L 132.5003051757813 112.4996109008789 L 132.5003051757813 111.9996109008789 L 132.5003051757813 35.99999237060547 L 132.5003051757813 35.49999237060547 L 132.0003051757813 35.49999237060547 L 10.99979877471924 35.49999237060547 L 10.49979877471924 35.49999237060547 Z M 111.9995956420898 100.4998092651367 L 99 100.4998092651367 C 97.07030487060547 100.4998092651367 95.50039672851563 98.92990112304688 95.50039672851563 97.00021362304688 L 95.50039672851563 83.99970245361328 C 95.50039672851563 82.07001495361328 97.07030487060547 80.50009918212891 99 80.50009918212891 L 111.9995956420898 80.50009918212891 C 113.9297790527344 80.50009918212891 115.5001068115234 82.07001495361328 115.5001068115234 83.99970245361328 L 115.5001068115234 97.00021362304688 C 115.5001068115234 98.92990112304688 113.9297790527344 100.4998092651367 111.9995956420898 100.4998092651367 Z M 78.00030517578125 100.4998092651367 L 64.99980163574219 100.4998092651367 C 63.07010650634766 100.4998092651367 61.50019836425781 98.92990112304688 61.50019836425781 97.00021362304688 L 61.50019836425781 83.99970245361328 C 61.50019836425781 82.07001495361328 63.07010650634766 80.50009918212891 64.99980163574219 80.50009918212891 L 78.00030517578125 80.50009918212891 C 79.93000030517578 80.50009918212891 81.49990844726563 82.07001495361328 81.49990844726563 83.99970245361328 L 81.49990844726563 97.00021362304688 C 81.49990844726563 98.92990112304688 79.93000030517578 100.4998092651367 78.00030517578125 100.4998092651367 Z M 44.00010681152344 100.4998092651367 L 30.99959945678711 100.4998092651367 C 29.06990814208984 100.4998092651367 27.49999809265137 98.92990112304688 27.49999809265137 97.00021362304688 L 27.49999809265137 83.99970245361328 C 27.49999809265137 82.07001495361328 29.06990814208984 80.50009918212891 30.99959945678711 80.50009918212891 L 44.00010681152344 80.50009918212891 C 45.9297981262207 80.50009918212891 47.49970626831055 82.07001495361328 47.49970626831055 83.99970245361328 L 47.49970626831055 97.00021362304688 C 47.49970626831055 98.92990112304688 45.9297981262207 100.4998092651367 44.00010681152344 100.4998092651367 Z M 111.9995956420898 69.50019073486328 L 99 69.50019073486328 C 97.07030487060547 69.50019073486328 95.50039672851563 67.92988586425781 95.50039672851563 65.99970245361328 L 95.50039672851563 53.00010299682617 C 95.50039672851563 51.06991958618164 97.07030487060547 49.49959182739258 99 49.49959182739258 L 111.9995956420898 49.49959182739258 C 113.9297790527344 49.49959182739258 115.5001068115234 51.06991958618164 115.5001068115234 53.00010299682617 L 115.5001068115234 65.99970245361328 C 115.5001068115234 67.92988586425781 113.9297790527344 69.50019073486328 111.9995956420898 69.50019073486328 Z M 78.00030517578125 69.50019073486328 L 64.99980163574219 69.50019073486328 C 63.07010650634766 69.50019073486328 61.50019836425781 67.92988586425781 61.50019836425781 65.99970245361328 L 61.50019836425781 53.00010299682617 C 61.50019836425781 51.06991958618164 63.07010650634766 49.49959182739258 64.99980163574219 49.49959182739258 L 78.00030517578125 49.49959182739258 C 79.93000030517578 49.49959182739258 81.49990844726563 51.06991958618164 81.49990844726563 53.00010299682617 L 81.49990844726563 65.99970245361328 C 81.49990844726563 67.92988586425781 79.93000030517578 69.50019073486328 78.00030517578125 69.50019073486328 Z M 44.00010681152344 69.50019073486328 L 30.99959945678711 69.50019073486328 C 29.06990814208984 69.50019073486328 27.49999809265137 67.92988586425781 27.49999809265137 65.99970245361328 L 27.49999809265137 53.00010299682617 C 27.49999809265137 51.06991958618164 29.06990814208984 49.49959182739258 30.99959945678711 49.49959182739258 L 44.00010681152344 49.49959182739258 C 45.9297981262207 49.49959182739258 47.49970626831055 51.06991958618164 47.49970626831055 53.00010299682617 L 47.49970626831055 65.99970245361328 C 47.49970626831055 67.92988586425781 45.9297981262207 69.50019073486328 44.00010681152344 69.50019073486328 Z" stroke="none"/>
    <path d="M 136.9998168945313 121.9994049072266 C 139.7569885253906 121.9994049072266 142.0001068115234 119.7566833496094 142.0001068115234 117 L 142.0001068115234 17.00010299682617 C 142.0001068115234 14.24292278289795 139.7569885253906 11.9998025894165 136.9998168945313 11.9998025894165 L 122.9994125366211 11.9998025894165 L 121.9994125366211 11.9998025894165 L 121.9994125366211 10.9998025894165 L 121.9994125366211 1.999802470207214 C 121.9994125366211 1.448502421379089 121.550910949707 1.000002503395081 120.9996109008789 1.000002503395081 L 94.99951171875 1.000002503395081 C 94.44821166992188 1.000002503395081 93.99971008300781 1.448502421379089 93.99971008300781 1.999802470207214 L 93.99971008300781 10.9998025894165 L 93.99971008300781 11.9998025894165 L 92.99971008300781 11.9998025894165 L 49.99949264526367 11.9998025894165 L 48.99949264526367 11.9998025894165 L 48.99949264526367 10.9998025894165 L 48.99949264526367 1.999802470207214 C 48.99949264526367 1.448502421379089 48.55099487304688 1.000002503395081 47.99971389770508 1.000002503395081 L 21.99961280822754 1.000002503395081 C 21.44831275939941 1.000002503395081 20.99981307983398 1.448502421379089 20.99981307983398 1.999802470207214 L 20.99981307983398 10.9998025894165 L 20.99981307983398 11.9998025894165 L 19.99981307983398 11.9998025894165 L 6.000293254852295 11.9998025894165 C 3.24311351776123 11.9998025894165 0.9999933838844299 14.24292278289795 0.9999933838844299 17.00010299682617 L 0.9999933838844299 117 C 0.9999933838844299 119.7566833496094 3.24311351776123 121.9994049072266 6.000293254852295 121.9994049072266 L 136.9998168945313 121.9994049072266 M 9.999813079833984 35.00000381469727 L 10.99981307983398 35.00000381469727 L 132.0003204345703 35.00000381469727 L 133.0003204345703 35.00000381469727 L 133.0003204345703 36.00000381469727 L 133.0003204345703 111.9996032714844 L 133.0003204345703 112.9996032714844 L 132.0003204345703 112.9996032714844 L 10.99981307983398 112.9996032714844 L 9.999813079833984 112.9996032714844 L 9.999813079833984 111.9996032714844 L 9.999813079833984 36.00000381469727 L 9.999813079833984 35.00000381469727 M 111.9996109008789 99.99980163574219 C 113.6540908813477 99.99980163574219 115.0000915527344 98.65418243408203 115.0000915527344 97.00020599365234 L 115.0000915527344 83.99970245361328 C 115.0000915527344 82.34572601318359 113.6540908813477 81.00009918212891 111.9996109008789 81.00009918212891 L 98.99999237060547 81.00009918212891 C 97.34601593017578 81.00009918212891 96.00041198730469 82.34572601318359 96.00041198730469 83.99970245361328 L 96.00041198730469 97.00020599365234 C 96.00041198730469 98.65418243408203 97.34601593017578 99.99980163574219 98.99999237060547 99.99980163574219 L 111.9996109008789 99.99980163574219 M 78.00031280517578 99.99980163574219 C 79.654296875 99.99980163574219 80.99989318847656 98.65418243408203 80.99989318847656 97.00020599365234 L 80.99989318847656 83.99970245361328 C 80.99989318847656 82.34572601318359 79.654296875 81.00009918212891 78.00031280517578 81.00009918212891 L 64.99979400634766 81.00009918212891 C 63.3458137512207 81.00009918212891 62.00019454956055 82.34572601318359 62.00019454956055 83.99970245361328 L 62.00019454956055 97.00020599365234 C 62.00019454956055 98.65418243408203 63.3458137512207 99.99980163574219 64.99979400634766 99.99980163574219 L 78.00031280517578 99.99980163574219 M 44.00009155273438 99.99980163574219 C 45.65409469604492 99.99980163574219 46.99971389770508 98.65418243408203 46.99971389770508 97.00020599365234 L 46.99971389770508 83.99970245361328 C 46.99971389770508 82.34572601318359 45.65409469604492 81.00009918212891 44.00009155273438 81.00009918212891 L 30.99961280822754 81.00009918212891 C 29.34561347961426 81.00009918212891 27.9999942779541 82.34572601318359 27.9999942779541 83.99970245361328 L 27.9999942779541 97.00020599365234 C 27.9999942779541 98.65418243408203 29.34561347961426 99.99980163574219 30.99961280822754 99.99980163574219 L 44.00009155273438 99.99980163574219 M 111.9996109008789 69.00020599365234 C 113.6540908813477 69.00020599365234 115.0000915527344 67.65418243408203 115.0000915527344 65.99970245361328 L 115.0000915527344 53.00010299682617 C 115.0000915527344 51.34562301635742 113.6540908813477 49.99960327148438 111.9996109008789 49.99960327148438 L 98.99999237060547 49.99960327148438 C 97.34601593017578 49.99960327148438 96.00041198730469 51.34562301635742 96.00041198730469 53.00010299682617 L 96.00041198730469 65.99970245361328 C 96.00041198730469 67.65418243408203 97.34601593017578 69.00020599365234 98.99999237060547 69.00020599365234 L 111.9996109008789 69.00020599365234 M 78.00031280517578 69.00020599365234 C 79.654296875 69.00020599365234 80.99989318847656 67.65418243408203 80.99989318847656 65.99970245361328 L 80.99989318847656 53.00010299682617 C 80.99989318847656 51.34562301635742 79.654296875 49.99960327148438 78.00031280517578 49.99960327148438 L 64.99979400634766 49.99960327148438 C 63.3458137512207 49.99960327148438 62.00019454956055 51.34562301635742 62.00019454956055 53.00010299682617 L 62.00019454956055 65.99970245361328 C 62.00019454956055 67.65418243408203 63.3458137512207 69.00020599365234 64.99979400634766 69.00020599365234 L 78.00031280517578 69.00020599365234 M 44.00009155273438 69.00020599365234 C 45.65409469604492 69.00020599365234 46.99971389770508 67.65418243408203 46.99971389770508 65.99970245361328 L 46.99971389770508 53.00010299682617 C 46.99971389770508 51.34562301635742 45.65409469604492 49.99960327148438 44.00009155273438 49.99960327148438 L 30.99961280822754 49.99960327148438 C 29.34561347961426 49.99960327148438 27.9999942779541 51.34562301635742 27.9999942779541 53.00010299682617 L 27.9999942779541 65.99970245361328 C 27.9999942779541 67.65418243408203 29.34561347961426 69.00020599365234 30.99961280822754 69.00020599365234 L 44.00009155273438 69.00020599365234 M 136.9998168945313 122.9994049072266 L 6.000293254852295 122.9994049072266 C 2.691913366317749 122.9994049072266 -6.594238129764562e-06 120.3084030151367 -6.594238129764562e-06 117 L -6.594238129764562e-06 17.00010299682617 C -6.594238129764562e-06 13.6917028427124 2.691913366317749 10.9998025894165 6.000293254852295 10.9998025894165 L 19.99981307983398 10.9998025894165 L 19.99981307983398 1.999802470207214 C 19.99981307983398 0.8955024480819702 20.89531326293945 2.453613205943839e-06 21.99961280822754 2.453613205943839e-06 L 47.99971389770508 2.453613205943839e-06 C 49.1039924621582 2.453613205943839e-06 49.99949264526367 0.8955024480819702 49.99949264526367 1.999802470207214 L 49.99949264526367 10.9998025894165 L 92.99971008300781 10.9998025894165 L 92.99971008300781 1.999802470207214 C 92.99971008300781 0.8955024480819702 93.89521026611328 2.453613205943839e-06 94.99951171875 2.453613205943839e-06 L 120.9996109008789 2.453613205943839e-06 C 122.1048126220703 2.453613205943839e-06 122.9994125366211 0.8955024480819702 122.9994125366211 1.999802470207214 L 122.9994125366211 10.9998025894165 L 136.9998168945313 10.9998025894165 C 140.3081970214844 10.9998025894165 143.0001068115234 13.6917028427124 143.0001068115234 17.00010299682617 L 143.0001068115234 117 C 143.0001068115234 120.3084030151367 140.3081970214844 122.9994049072266 136.9998168945313 122.9994049072266 Z M 10.99981307983398 36.00000381469727 L 10.99981307983398 111.9996032714844 L 132.0003204345703 111.9996032714844 L 132.0003204345703 36.00000381469727 L 10.99981307983398 36.00000381469727 Z M 111.9996109008789 100.9998016357422 L 98.99999237060547 100.9998016357422 C 96.79051208496094 100.9998016357422 95.00041198730469 99.20880126953125 95.00041198730469 97.00020599365234 L 95.00041198730469 83.99970245361328 C 95.00041198730469 81.79109954833984 96.79051208496094 80.00009918212891 98.99999237060547 80.00009918212891 L 111.9996109008789 80.00009918212891 C 114.209114074707 80.00009918212891 116.0000915527344 81.79109954833984 116.0000915527344 83.99970245361328 L 116.0000915527344 97.00020599365234 C 116.0000915527344 99.20880126953125 114.209114074707 100.9998016357422 111.9996109008789 100.9998016357422 Z M 78.00031280517578 100.9998016357422 L 64.99979400634766 100.9998016357422 C 62.79119491577148 100.9998016357422 61.00019454956055 99.20880126953125 61.00019454956055 97.00020599365234 L 61.00019454956055 83.99970245361328 C 61.00019454956055 81.79109954833984 62.79119491577148 80.00009918212891 64.99979400634766 80.00009918212891 L 78.00031280517578 80.00009918212891 C 80.20889282226563 80.00009918212891 81.99989318847656 81.79109954833984 81.99989318847656 83.99970245361328 L 81.99989318847656 97.00020599365234 C 81.99989318847656 99.20880126953125 80.20889282226563 100.9998016357422 78.00031280517578 100.9998016357422 Z M 44.00009155273438 100.9998016357422 L 30.99961280822754 100.9998016357422 C 28.79099273681641 100.9998016357422 26.9999942779541 99.20880126953125 26.9999942779541 97.00020599365234 L 26.9999942779541 83.99970245361328 C 26.9999942779541 81.79109954833984 28.79099273681641 80.00009918212891 30.99961280822754 80.00009918212891 L 44.00009155273438 80.00009918212891 C 46.20869445800781 80.00009918212891 47.99971389770508 81.79109954833984 47.99971389770508 83.99970245361328 L 47.99971389770508 97.00020599365234 C 47.99971389770508 99.20880126953125 46.20869445800781 100.9998016357422 44.00009155273438 100.9998016357422 Z M 111.9996109008789 70.00020599365234 L 98.99999237060547 70.00020599365234 C 96.79051208496094 70.00020599365234 95.00041198730469 68.20920562744141 95.00041198730469 65.99970245361328 L 95.00041198730469 53.00010299682617 C 95.00041198730469 50.79060363769531 96.79051208496094 48.99960327148438 98.99999237060547 48.99960327148438 L 111.9996109008789 48.99960327148438 C 114.209114074707 48.99960327148438 116.0000915527344 50.79060363769531 116.0000915527344 53.00010299682617 L 116.0000915527344 65.99970245361328 C 116.0000915527344 68.20920562744141 114.209114074707 70.00020599365234 111.9996109008789 70.00020599365234 Z M 78.00031280517578 70.00020599365234 L 64.99979400634766 70.00020599365234 C 62.79119491577148 70.00020599365234 61.00019454956055 68.20920562744141 61.00019454956055 65.99970245361328 L 61.00019454956055 53.00010299682617 C 61.00019454956055 50.79060363769531 62.79119491577148 48.99960327148438 64.99979400634766 48.99960327148438 L 78.00031280517578 48.99960327148438 C 80.20889282226563 48.99960327148438 81.99989318847656 50.79060363769531 81.99989318847656 53.00010299682617 L 81.99989318847656 65.99970245361328 C 81.99989318847656 68.20920562744141 80.20889282226563 70.00020599365234 78.00031280517578 70.00020599365234 Z M 44.00009155273438 70.00020599365234 L 30.99961280822754 70.00020599365234 C 28.79099273681641 70.00020599365234 26.9999942779541 68.20920562744141 26.9999942779541 65.99970245361328 L 26.9999942779541 53.00010299682617 C 26.9999942779541 50.79060363769531 28.79099273681641 48.99960327148438 30.99961280822754 48.99960327148438 L 44.00009155273438 48.99960327148438 C 46.20869445800781 48.99960327148438 47.99971389770508 50.79060363769531 47.99971389770508 53.00010299682617 L 47.99971389770508 65.99970245361328 C 47.99971389770508 68.20920562744141 46.20869445800781 70.00020599365234 44.00009155273438 70.00020599365234 Z" stroke="none" fill="#00a794"/>
  </g>
</svg>
